<?xml version="1.0" encoding="UTF-8"?><svg id="Layer_1" xmlns="http://www.w3.org/2000/svg" xmlns:xlink="http://www.w3.org/1999/xlink" viewBox="0 0 161.027 161"><defs><linearGradient id="linear-gradient" x1=".514" y1="105.485" x2="160.514" y2="105.485" gradientUnits="userSpaceOnUse"><stop offset="0" stop-color="#c9a74f"/><stop offset=".532" stop-color="#faf59e"/><stop offset="1" stop-color="#c9a74f"/></linearGradient></defs><rect x=".514" y=".5" width="160" height="160" rx="4" ry="4" fill="#fff" stroke="#c9a74f" stroke-miterlimit="10"/><path d="M156.514,160.5H4.514c-2.209,0-4-1.791-4-4v-73.528c0-1.925,1.371-3.577,3.263-3.931l152-28.5c2.462-.462,4.737,1.427,4.737,3.931v102.028c0,2.209-1.791,4-4,4Z" fill="url(#linear-gradient)"/><path d="M30.86,125.102c0,1.084-.37,1.918-1.109,2.501-.74.584-1.799.876-3.176.876h-1.26v4.211h-1.244v-10.708h2.775c2.676,0,4.014,1.04,4.014,3.12ZM25.315,127.408h1.121c1.104,0,1.901-.178,2.395-.534s.74-.928.74-1.714c0-.708-.232-1.235-.695-1.582-.465-.347-1.188-.52-2.168-.52h-1.393v4.35Z"/><path d="M36.58,124.516c.356,0,.676.029.959.088l-.168,1.128c-.332-.073-.625-.11-.879-.11-.649,0-1.205.264-1.666.791-.462.527-.692,1.185-.692,1.971v4.307h-1.216v-8.027h1.004l.139,1.486h.059c.298-.521.656-.925,1.076-1.208s.882-.425,1.385-.425Z"/><path d="M45.97,128.668c0,1.31-.329,2.331-.989,3.065-.658.735-1.569,1.103-2.731,1.103-.718,0-1.354-.168-1.911-.506-.557-.336-.987-.82-1.289-1.449-.304-.631-.455-1.367-.455-2.213,0-1.308.327-2.327.982-3.058.653-.729,1.562-1.095,2.725-1.095,1.122,0,2.015.373,2.677,1.121.661.746.992,1.758.992,3.031ZM39.854,128.668c0,1.025.205,1.808.615,2.344.41.538,1.014.807,1.81.807s1.4-.268,1.812-.803c.413-.534.619-1.316.619-2.348,0-1.02-.206-1.795-.619-2.325-.412-.529-1.021-.794-1.827-.794-.796,0-1.396.261-1.802.783s-.608,1.302-.608,2.336Z"/><path d="M54.671,124.662v.77l-1.487.176c.137.171.259.394.366.67.107.275.161.587.161.934,0,.786-.269,1.414-.806,1.883s-1.274.703-2.212.703c-.239,0-.464-.02-.674-.059-.518.273-.776.617-.776,1.032,0,.22.09.382.271.487.18.104.49.157.93.157h1.421c.869,0,1.537.183,2.003.55.467.365.699.897.699,1.596,0,.889-.356,1.566-1.068,2.033-.714.466-1.754.699-3.121.699-1.05,0-1.858-.195-2.428-.586-.568-.391-.854-.942-.854-1.655,0-.488.156-.911.469-1.267.312-.356.752-.599,1.318-.726-.205-.093-.377-.236-.516-.433-.14-.194-.209-.422-.209-.681,0-.293.078-.55.234-.769.156-.221.402-.433.74-.638-.416-.171-.754-.462-1.015-.872-.262-.41-.392-.879-.392-1.406,0-.879.264-1.556.791-2.032.527-.476,1.273-.714,2.24-.714.42,0,.799.049,1.136.146h2.776ZM48.269,134.037c0,.435.184.764.55.988s.891.338,1.575.338c1.02,0,1.775-.153,2.267-.458.49-.306.735-.72.735-1.241,0-.436-.134-.736-.402-.905-.269-.168-.774-.253-1.516-.253h-1.458c-.552,0-.981.133-1.289.396s-.462.642-.462,1.135ZM48.929,127.233c0,.562.158.987.476,1.275s.759.432,1.325.432c1.188,0,1.78-.576,1.78-1.729,0-1.206-.601-1.809-1.802-1.809-.571,0-1.011.153-1.318.461s-.461.765-.461,1.369Z"/><path d="M59.981,124.516c.356,0,.676.029.959.088l-.168,1.128c-.332-.073-.625-.11-.879-.11-.649,0-1.205.264-1.666.791-.462.527-.692,1.185-.692,1.971v4.307h-1.216v-8.027h1.004l.139,1.486h.059c.298-.521.656-.925,1.076-1.208s.882-.425,1.385-.425Z"/><path d="M67.378,132.69l-.241-1.143h-.059c-.401.503-.8.844-1.198,1.021-.397.179-.895.268-1.49.268-.796,0-1.42-.205-1.871-.615-.452-.41-.678-.993-.678-1.75,0-1.621,1.296-2.471,3.89-2.549l1.361-.045v-.498c0-.629-.135-1.095-.406-1.395-.271-.301-.704-.451-1.3-.451-.669,0-1.426.205-2.271.615l-.373-.93c.395-.215.828-.383,1.3-.506.471-.121.943-.183,1.417-.183.957,0,1.666.212,2.128.638.461.424.692,1.105.692,2.043v5.479h-.901ZM64.631,131.832c.757,0,1.352-.207,1.784-.622.432-.415.647-.996.647-1.743v-.725l-1.215.051c-.967.034-1.664.185-2.092.45-.427.267-.641.681-.641,1.241,0,.439.133.774.399,1.004.266.229.638.344,1.116.344Z"/><path d="M81.016,132.69v-5.223c0-.639-.138-1.119-.41-1.438-.274-.32-.699-.479-1.275-.479-.757,0-1.315.217-1.677.651s-.542,1.104-.542,2.007v4.482h-1.216v-5.223c0-.639-.137-1.119-.41-1.438-.273-.32-.701-.479-1.282-.479-.762,0-1.319.228-1.673.685-.354.456-.531,1.204-.531,2.245v4.211h-1.216v-8.027h.988l.198,1.099h.059c.229-.391.553-.696.971-.915.417-.221.885-.33,1.402-.33,1.255,0,2.075.454,2.461,1.362h.059c.239-.42.586-.752,1.04-.996s.972-.366,1.553-.366c.908,0,1.588.233,2.04.699.451.467.677,1.213.677,2.238v5.236h-1.215Z"/><path d="M97.364,127.233c0,1.769-.479,3.119-1.439,4.055-.959.935-2.34,1.402-4.142,1.402h-2.966v-10.708h3.281c1.664,0,2.959.462,3.881,1.384s1.385,2.213,1.385,3.867ZM96.045,127.278c0-1.396-.351-2.449-1.051-3.157-.701-.708-1.742-1.062-3.124-1.062h-1.81v8.555h1.517c1.484,0,2.601-.365,3.347-1.096.748-.729,1.121-1.81,1.121-3.24Z"/><path d="M99.466,122.487c0-.277.068-.481.205-.611.137-.129.308-.193.513-.193.195,0,.363.065.506.197.141.132.212.335.212.607,0,.274-.071.478-.212.612-.143.134-.311.201-.506.201-.205,0-.376-.067-.513-.201-.137-.135-.205-.338-.205-.612ZM100.784,132.69h-1.216v-8.027h1.216v8.027Z"/><path d="M107.024,124.516c.356,0,.676.029.959.088l-.168,1.128c-.332-.073-.625-.11-.879-.11-.649,0-1.205.264-1.666.791-.462.527-.692,1.185-.692,1.971v4.307h-1.216v-8.027h1.004l.139,1.486h.059c.298-.521.656-.925,1.076-1.208s.882-.425,1.385-.425Z"/><path d="M112.875,132.836c-1.186,0-2.122-.361-2.809-1.084-.686-.723-1.029-1.726-1.029-3.01,0-1.294.319-2.322.956-3.084.638-.762,1.493-1.143,2.567-1.143,1.006,0,1.802.331,2.388.992.586.662.879,1.535.879,2.619v.769h-5.53c.024.942.263,1.658.715,2.146.451.489,1.088.732,1.908.732.863,0,1.718-.18,2.562-.541v1.084c-.43.186-.836.318-1.219.398-.384.081-.846.121-1.389.121ZM112.546,125.533c-.645,0-1.158.211-1.542.631-.383.42-.609,1.001-.678,1.742h4.197c0-.766-.171-1.354-.513-1.761-.342-.408-.83-.612-1.465-.612Z"/><path d="M121.109,132.836c-1.162,0-2.062-.357-2.699-1.073-.637-.715-.956-1.727-.956-3.036,0-1.342.324-2.38.971-3.112.647-.732,1.568-1.099,2.766-1.099.385,0,.771.042,1.156.125s.689.181.908.293l-.373,1.032c-.269-.107-.562-.196-.879-.268-.317-.07-.599-.106-.842-.106-1.632,0-2.447,1.041-2.447,3.121,0,.986.199,1.742.598,2.27.397.527.987.791,1.769.791.669,0,1.354-.144,2.058-.432v1.076c-.537.279-1.213.418-2.028.418Z"/><path d="M127.634,131.832c.215,0,.422-.016.622-.047.2-.032.359-.064.477-.1v.931c-.132.063-.326.116-.582.157-.257.042-.487.062-.692.062-1.553,0-2.329-.817-2.329-2.453v-4.775h-1.15v-.586l1.15-.506.513-1.714h.703v1.86h2.329v.945h-2.329v4.724c0,.483.114.854.345,1.113.229.259.544.388.944.388Z"/><path d="M137.266,128.668c0,1.31-.329,2.331-.989,3.065-.658.735-1.569,1.103-2.731,1.103-.718,0-1.354-.168-1.911-.506-.557-.336-.987-.82-1.289-1.449-.304-.631-.455-1.367-.455-2.213,0-1.308.327-2.327.982-3.058.653-.729,1.562-1.095,2.725-1.095,1.122,0,2.015.373,2.677,1.121.661.746.992,1.758.992,3.031ZM131.15,128.668c0,1.025.205,1.808.615,2.344.41.538,1.014.807,1.81.807s1.4-.268,1.812-.803c.413-.534.619-1.316.619-2.348,0-1.02-.206-1.795-.619-2.325-.412-.529-1.021-.794-1.827-.794-.796,0-1.396.261-1.802.783s-.608,1.302-.608,2.336Z"/><path d="M143.059,124.516c.356,0,.676.029.959.088l-.168,1.128c-.332-.073-.625-.11-.879-.11-.649,0-1.205.264-1.666.791-.462.527-.692,1.185-.692,1.971v4.307h-1.216v-8.027h1.004l.139,1.486h.059c.298-.521.656-.925,1.076-1.208s.882-.425,1.385-.425Z"/><path d="M23.213,145.225v-1.113h3.596v1.113h-3.596Z"/><path d="M39.582,141.102c0,1.084-.37,1.918-1.109,2.501-.74.584-1.799.876-3.176.876h-1.26v4.211h-1.244v-10.708h2.775c2.676,0,4.014,1.04,4.014,3.12ZM34.037,143.408h1.121c1.104,0,1.901-.178,2.395-.534s.74-.928.74-1.714c0-.708-.232-1.235-.695-1.582-.465-.347-1.188-.52-2.168-.52h-1.393v4.35Z"/><path d="M45.303,140.516c.356,0,.676.029.959.088l-.168,1.128c-.332-.073-.625-.11-.879-.11-.649,0-1.205.264-1.666.791-.462.527-.692,1.185-.692,1.971v4.307h-1.216v-8.027h1.004l.139,1.486h.059c.298-.521.656-.925,1.076-1.208s.882-.425,1.385-.425Z"/><path d="M52.7,148.69l-.241-1.143h-.059c-.401.503-.8.844-1.198,1.021-.397.179-.895.268-1.49.268-.796,0-1.42-.205-1.871-.615-.452-.41-.678-.993-.678-1.75,0-1.621,1.296-2.471,3.89-2.549l1.361-.045v-.498c0-.629-.135-1.095-.406-1.395-.271-.301-.704-.451-1.3-.451-.669,0-1.426.205-2.271.615l-.373-.93c.395-.215.828-.383,1.3-.506.471-.121.943-.183,1.417-.183.957,0,1.666.212,2.128.638.461.424.692,1.105.692,2.043v5.479h-.901ZM49.953,147.832c.757,0,1.352-.207,1.784-.622.432-.415.647-.996.647-1.743v-.725l-1.215.051c-.967.034-1.664.185-2.092.45-.427.267-.641.681-.641,1.241,0,.439.133.774.399,1.004.266.229.638.344,1.116.344Z"/><path d="M59.314,148.836c-1.162,0-2.062-.357-2.699-1.073-.637-.715-.956-1.727-.956-3.036,0-1.342.324-2.38.971-3.112.647-.732,1.568-1.099,2.766-1.099.385,0,.771.042,1.156.125s.689.181.908.293l-.373,1.032c-.269-.107-.562-.196-.879-.268-.317-.07-.599-.106-.842-.106-1.632,0-2.447,1.041-2.447,3.121,0,.986.199,1.742.598,2.27.397.527.987.791,1.769.791.669,0,1.354-.144,2.058-.432v1.076c-.537.279-1.213.418-2.028.418Z"/><path d="M65.84,147.832c.215,0,.422-.016.622-.047.2-.032.359-.064.477-.1v.931c-.132.063-.326.116-.582.157-.257.042-.487.062-.692.062-1.553,0-2.329-.817-2.329-2.453v-4.775h-1.15v-.586l1.15-.506.513-1.714h.703v1.86h2.329v.945h-2.329v4.724c0,.483.114.854.345,1.113.229.259.544.388.944.388Z"/><path d="M68.441,138.487c0-.277.068-.481.205-.611.137-.129.308-.193.513-.193.195,0,.363.065.506.197.141.132.212.335.212.607,0,.274-.071.478-.212.612-.143.134-.311.201-.506.201-.205,0-.376-.067-.513-.201-.137-.135-.205-.338-.205-.612ZM69.759,148.69h-1.216v-8.027h1.216v8.027Z"/><path d="M74.929,147.832c.215,0,.422-.016.622-.047.2-.032.359-.064.477-.1v.931c-.132.063-.326.116-.582.157-.257.042-.487.062-.692.062-1.553,0-2.329-.817-2.329-2.453v-4.775h-1.15v-.586l1.15-.506.513-1.714h.703v1.86h2.329v.945h-2.329v4.724c0,.483.114.854.345,1.113.229.259.544.388.944.388Z"/><path d="M77.53,138.487c0-.277.068-.481.205-.611.137-.129.308-.193.513-.193.195,0,.363.065.506.197.141.132.212.335.212.607,0,.274-.071.478-.212.612-.143.134-.311.201-.506.201-.205,0-.376-.067-.513-.201-.137-.135-.205-.338-.205-.612ZM78.848,148.69h-1.216v-8.027h1.216v8.027Z"/><path d="M88.355,144.668c0,1.31-.329,2.331-.989,3.065-.658.735-1.569,1.103-2.731,1.103-.718,0-1.354-.168-1.911-.506-.557-.336-.987-.82-1.289-1.449-.304-.631-.455-1.367-.455-2.213,0-1.308.327-2.327.982-3.058.653-.729,1.562-1.095,2.725-1.095,1.122,0,2.015.373,2.677,1.121.661.746.992,1.758.992,3.031ZM82.239,144.668c0,1.025.205,1.808.615,2.344.41.538,1.014.807,1.81.807s1.4-.268,1.812-.803c.413-.534.619-1.316.619-2.348,0-1.02-.206-1.795-.619-2.325-.412-.529-1.021-.794-1.827-.794-.796,0-1.396.261-1.802.783s-.608,1.302-.608,2.336Z"/><path d="M95.98,148.69v-5.193c0-.653-.149-1.143-.446-1.465-.299-.322-.765-.482-1.399-.482-.84,0-1.455.227-1.846.681s-.586,1.204-.586,2.249v4.211h-1.216v-8.027h.988l.198,1.099h.059c.249-.396.598-.702,1.048-.919.448-.218.949-.326,1.501-.326.967,0,1.694.233,2.183.699.488.467.732,1.213.732,2.238v5.236h-1.216Z"/><path d="M103.083,148.836c-1.186,0-2.122-.361-2.809-1.084-.686-.723-1.029-1.726-1.029-3.01,0-1.294.319-2.322.956-3.084.638-.762,1.493-1.143,2.567-1.143,1.006,0,1.802.331,2.388.992.586.662.879,1.535.879,2.619v.769h-5.53c.024.942.263,1.658.715,2.146.451.489,1.088.732,1.908.732.863,0,1.718-.18,2.562-.541v1.084c-.43.186-.836.318-1.219.398-.384.081-.846.121-1.389.121ZM102.754,141.533c-.645,0-1.158.211-1.542.631-.383.42-.609,1.001-.678,1.742h4.197c0-.766-.171-1.354-.513-1.761-.342-.408-.83-.612-1.465-.612Z"/><path d="M111.77,140.516c.356,0,.676.029.959.088l-.168,1.128c-.332-.073-.625-.11-.879-.11-.649,0-1.205.264-1.666.791-.462.527-.692,1.185-.692,1.971v4.307h-1.216v-8.027h1.004l.139,1.486h.059c.298-.521.656-.925,1.076-1.208s.882-.425,1.385-.425Z"/><path d="M115.529,143.361h-.892v-4.655h-1.584v-.755h4.056v.755h-1.58v4.655Z"/><path d="M120.27,143.361l-1.559-4.519h-.033c.008.102.017.239.026.414.01.176.019.363.025.562.008.2.012.392.012.574v2.968h-.807v-5.41h1.247l1.498,4.318h.022l1.551-4.318h1.243v5.41h-.848v-3.013c0-.165.004-.344.01-.536s.014-.375.022-.548c.008-.173.015-.311.02-.414h-.029l-1.617,4.511h-.784Z"/><path d="M43.271,116.448l-3.199-8.174h-10.301l-3.164,8.174h-3.023l10.16-25.805h2.514l10.107,25.805h-3.094ZM39.14,105.585l-2.988-7.963c-.387-1.008-.785-2.244-1.195-3.709-.258,1.125-.627,2.361-1.107,3.709l-3.023,7.963h8.314Z"/><path d="M49.898,116.448v-25.699h2.988v25.699h-2.988Z"/><polygon points="61.18 100.256 63.563 100.256 63.563 93.857 69.872 93.857 69.872 91.655 63.563 91.655 63.563 85.256 61.18 85.256 61.18 91.655 54.872 91.655 54.872 93.857 61.18 93.857 61.18 100.256"/><path d="M43.342,39.856l-1.32-4.333h-6.637l-1.32,4.333h-4.159l6.425-18.28h4.72l6.45,18.28h-4.159,0ZM41.101,32.285l-1.32-4.234c-.083-.282-.193-.645-.33-1.09-.137-.444-.274-.897-.411-1.357s-.247-.861-.33-1.202c-.083.341-.197.762-.342,1.264-.145.502-.284.978-.417,1.426-.133.448-.229.768-.286.959l-1.307,4.234h4.744,0Z" fill="#c7a84c"/><path d="M49.155,39.856v-18.206h3.86v18.206h-3.86Z" fill="#c7a84c"/><path d="M67.493,24.602c-.739,0-1.393.143-1.961.43-.569.286-1.046.699-1.432,1.239-.386.54-.679,1.191-.878,1.955-.199.764-.299,1.623-.299,2.578,0,1.287.16,2.385.479,3.294.319.909.816,1.602,1.488,2.08.673.477,1.54.716,2.603.716.739,0,1.48-.083,2.223-.249.743-.166,1.55-.403,2.422-.71v3.238c-.805.332-1.598.571-2.378.716-.781.145-1.656.218-2.628.218-1.876,0-3.418-.388-4.626-1.164-1.208-.776-2.102-1.864-2.684-3.263-.581-1.399-.872-3.032-.872-4.9,0-1.378.187-2.64.56-3.786.374-1.146.922-2.138,1.644-2.976.722-.838,1.615-1.486,2.677-1.943,1.063-.456,2.283-.685,3.661-.685.905,0,1.812.114,2.721.342.909.228,1.779.542,2.609.94l-1.245,3.138c-.681-.324-1.366-.606-2.055-.847-.689-.241-1.366-.361-2.03-.361h0Z"/><path d="M85.858,39.856h-10.485v-18.206h10.485v3.163h-6.625v3.997h6.164v3.163h-6.164v4.695h6.625v3.188h0Z"/><path d="M94.323,21.651c1.652,0,3.015.199,4.091.598,1.075.398,1.874,1,2.397,1.806.523.805.785,1.822.785,3.051,0,.83-.158,1.557-.473,2.179-.316.623-.731,1.15-1.245,1.581-.515.432-1.071.785-1.669,1.058l5.355,7.932h-4.284l-4.346-6.986h-2.055v6.986h-3.86v-18.206h5.305ZM94.049,24.814h-1.171v4.919h1.245c1.278,0,2.194-.214,2.746-.641.552-.427.828-1.056.828-1.887,0-.863-.297-1.478-.89-1.843-.594-.365-1.513-.548-2.758-.548h0Z"/><path d="M112.24,39.856h-3.86v-14.993h-4.944v-3.213h13.748v3.213h-4.944v14.993Z"/><path d="M128.762,35.722c0,.946-.222,1.745-.666,2.397-.444.652-1.106,1.146-1.986,1.482-.88.336-1.976.504-3.287.504-.971,0-1.804-.062-2.497-.187-.693-.125-1.393-.332-2.098-.623v-3.138c.755.341,1.567.621,2.434.841.867.22,1.629.33,2.285.33.739,0,1.268-.11,1.588-.33.319-.22.479-.508.479-.865,0-.232-.064-.442-.193-.629-.129-.187-.405-.398-.828-.635s-1.088-.546-1.992-.928c-.872-.365-1.588-.735-2.148-1.108-.56-.374-.976-.816-1.245-1.326-.27-.511-.405-1.16-.405-1.949,0-1.287.5-2.256,1.501-2.908,1-.652,2.339-.978,4.016-.978.863,0,1.687.087,2.472.261.785.174,1.592.453,2.422.834l-1.146,2.74c-.689-.299-1.339-.544-1.949-.735-.61-.191-1.231-.286-1.862-.286-.556,0-.976.075-1.258.224-.282.149-.423.378-.423.685,0,.224.073.423.218.598.145.174.427.367.847.579.419.212,1.036.484,1.849.816.789.324,1.474.662,2.055,1.015.581.353,1.029.789,1.345,1.307.315.519.473,1.189.473,2.011h0Z"/><path d="M35.19,28.085h-5.665l-4.183-4.183c.176-.239.28-.534.28-.852,0-.793-.645-1.439-1.439-1.439s-1.439.645-1.439,1.439.645,1.439,1.439,1.439c.183,0,.359-.035.52-.098l4.491,4.491h5.206l-.621,1.459h-8.287c-.173-.6-.727-1.04-1.382-1.04-.793,0-1.439.645-1.439,1.439s.645,1.439,1.439,1.439c.655,0,1.209-.44,1.382-1.04h7.948l-.621,1.459h-3.772l-4.491,4.491c-.161-.063-.337-.098-.52-.098-.793,0-1.439.645-1.439,1.439s.645,1.439,1.439,1.439,1.439-.645,1.439-1.439c0-.319-.104-.614-.28-.852l4.183-4.183h3.553l2.259-5.308h0Z" fill="#c7a84c"/><path d="M134.702,21.375c-2.059,0-3.728,1.669-3.728,3.728s1.669,3.728,3.728,3.728,3.728-1.669,3.728-3.728-1.669-3.728-3.728-3.728M134.702,28.085c-1.647,0-2.982-1.335-2.982-2.982s1.335-2.982,2.982-2.982,2.982,1.335,2.982,2.982-1.335,2.982-2.982,2.982M134.795,25.576h-.537v1.204h-.675v-3.277h1.215c.319-.02.635.071.895.257.218.184.334.461.313.746.007.197-.043.391-.145.559-.105.166-.259.296-.44.373l.708,1.338v.037h-.723l-.611-1.204M134.258,25.066h.544c.142.008.282-.039.391-.13.1-.097.15-.234.138-.373.011-.137-.036-.273-.13-.373-.11-.097-.256-.144-.403-.13h-.541v1.006Z"/></svg>