<?xml version="1.0" encoding="UTF-8"?><svg id="Layer_1" xmlns="http://www.w3.org/2000/svg" xmlns:xlink="http://www.w3.org/1999/xlink" viewBox="0 0 161.027 161"><defs><linearGradient id="linear-gradient" x1=".514" y1="105.485" x2="160.514" y2="105.485" gradientUnits="userSpaceOnUse"><stop offset="0" stop-color="#c9a74f"/><stop offset=".532" stop-color="#faf59e"/><stop offset="1" stop-color="#c9a74f"/></linearGradient></defs><rect x=".514" y=".5" width="160" height="160" rx="4" ry="4" fill="#fff" stroke="#c9a74f" stroke-miterlimit="10"/><path d="M156.514,160.5H4.514c-2.209,0-4-1.791-4-4v-73.528c0-1.925,1.371-3.577,3.263-3.931l152-28.5c2.462-.462,4.737,1.427,4.737,3.931v102.028c0,2.209-1.791,4-4,4Z" fill="url(#linear-gradient)"/><path d="M43.342,39.856l-1.32-4.333h-6.637l-1.32,4.333h-4.159l6.425-18.28h4.72l6.45,18.28h-4.159,0ZM41.101,32.285l-1.32-4.234c-.083-.282-.193-.645-.33-1.09-.137-.444-.274-.897-.411-1.357s-.247-.861-.33-1.202c-.083.341-.197.762-.342,1.264-.145.502-.284.978-.417,1.426-.133.448-.229.768-.286.959l-1.307,4.234h4.744,0Z" fill="#c7a84c"/><path d="M49.155,39.856v-18.206h3.86v18.206h-3.86Z" fill="#c7a84c"/><path d="M67.493,24.602c-.739,0-1.393.143-1.961.43-.569.286-1.046.699-1.432,1.239-.386.54-.679,1.191-.878,1.955-.199.764-.299,1.623-.299,2.578,0,1.287.16,2.385.479,3.294.319.909.816,1.602,1.488,2.08.673.477,1.54.716,2.603.716.739,0,1.48-.083,2.223-.249.743-.166,1.55-.403,2.422-.71v3.238c-.805.332-1.598.571-2.378.716-.781.145-1.656.218-2.628.218-1.876,0-3.418-.388-4.626-1.164-1.208-.776-2.102-1.864-2.684-3.263-.581-1.399-.872-3.032-.872-4.9,0-1.378.187-2.64.56-3.786.374-1.146.922-2.138,1.644-2.976.722-.838,1.615-1.486,2.677-1.943,1.063-.456,2.283-.685,3.661-.685.905,0,1.812.114,2.721.342.909.228,1.779.542,2.609.94l-1.245,3.138c-.681-.324-1.366-.606-2.055-.847-.689-.241-1.366-.361-2.03-.361h0Z"/><path d="M85.858,39.856h-10.485v-18.206h10.485v3.163h-6.625v3.997h6.164v3.163h-6.164v4.695h6.625v3.188h0Z"/><path d="M94.323,21.651c1.652,0,3.015.199,4.091.598,1.075.398,1.874,1,2.397,1.806.523.805.785,1.822.785,3.051,0,.83-.158,1.557-.473,2.179-.316.623-.731,1.15-1.245,1.581-.515.432-1.071.785-1.669,1.058l5.355,7.932h-4.284l-4.346-6.986h-2.055v6.986h-3.86v-18.206h5.305ZM94.049,24.814h-1.171v4.919h1.245c1.278,0,2.194-.214,2.746-.641.552-.427.828-1.056.828-1.887,0-.863-.297-1.478-.89-1.843-.594-.365-1.513-.548-2.758-.548h0Z"/><path d="M112.24,39.856h-3.86v-14.993h-4.944v-3.213h13.748v3.213h-4.944v14.993Z"/><path d="M128.762,35.722c0,.946-.222,1.745-.666,2.397-.444.652-1.106,1.146-1.986,1.482-.88.336-1.976.504-3.287.504-.971,0-1.804-.062-2.497-.187-.693-.125-1.393-.332-2.098-.623v-3.138c.755.341,1.567.621,2.434.841.867.22,1.629.33,2.285.33.739,0,1.268-.11,1.588-.33.319-.22.479-.508.479-.865,0-.232-.064-.442-.193-.629-.129-.187-.405-.398-.828-.635s-1.088-.546-1.992-.928c-.872-.365-1.588-.735-2.148-1.108-.56-.374-.976-.816-1.245-1.326-.27-.511-.405-1.16-.405-1.949,0-1.287.5-2.256,1.501-2.908,1-.652,2.339-.978,4.016-.978.863,0,1.687.087,2.472.261.785.174,1.592.453,2.422.834l-1.146,2.74c-.689-.299-1.339-.544-1.949-.735-.61-.191-1.231-.286-1.862-.286-.556,0-.976.075-1.258.224-.282.149-.423.378-.423.685,0,.224.073.423.218.598.145.174.427.367.847.579.419.212,1.036.484,1.849.816.789.324,1.474.662,2.055,1.015.581.353,1.029.789,1.345,1.307.315.519.473,1.189.473,2.011h0Z"/><path d="M35.19,28.085h-5.665l-4.183-4.183c.176-.239.28-.534.28-.852,0-.793-.645-1.439-1.439-1.439s-1.439.645-1.439,1.439.645,1.439,1.439,1.439c.183,0,.359-.035.52-.098l4.491,4.491h5.206l-.621,1.459h-8.287c-.173-.6-.727-1.04-1.382-1.04-.793,0-1.439.645-1.439,1.439s.645,1.439,1.439,1.439c.655,0,1.209-.44,1.382-1.04h7.948l-.621,1.459h-3.772l-4.491,4.491c-.161-.063-.337-.098-.52-.098-.793,0-1.439.645-1.439,1.439s.645,1.439,1.439,1.439,1.439-.645,1.439-1.439c0-.319-.104-.614-.28-.852l4.183-4.183h3.553l2.259-5.308h0Z" fill="#c7a84c"/><path d="M134.702,21.375c-2.059,0-3.728,1.669-3.728,3.728s1.669,3.728,3.728,3.728,3.728-1.669,3.728-3.728-1.669-3.728-3.728-3.728M134.702,28.085c-1.647,0-2.982-1.335-2.982-2.982s1.335-2.982,2.982-2.982,2.982,1.335,2.982,2.982-1.335,2.982-2.982,2.982M134.795,25.576h-.537v1.204h-.675v-3.277h1.215c.319-.02.635.071.895.257.218.184.334.461.313.746.007.197-.043.391-.145.559-.105.166-.259.296-.44.373l.708,1.338v.037h-.723l-.611-1.204M134.258,25.066h.544c.142.008.282-.039.391-.13.1-.097.15-.234.138-.373.011-.137-.036-.273-.13-.373-.11-.097-.256-.144-.403-.13h-.541v1.006Z"/><path d="M29.206,126.619c0,.867-.296,1.534-.888,2.001s-1.438.7-2.54.7h-1.008v3.369h-.996v-8.566h2.221c2.141,0,3.211.832,3.211,2.496ZM24.771,128.465h.896c.883,0,1.521-.143,1.916-.428s.592-.742.592-1.371c0-.566-.186-.988-.557-1.266s-.949-.416-1.734-.416h-1.113v3.48Z"/><path d="M33.723,126.151c.285,0,.541.023.768.07l-.135.902c-.266-.059-.5-.088-.703-.088-.52,0-.964.211-1.333.633s-.554.947-.554,1.576v3.445h-.973v-6.422h.803l.111,1.189h.047c.238-.418.525-.74.861-.967s.705-.34,1.107-.34Z"/><path d="M41.174,129.473c0,1.047-.264,1.864-.791,2.452s-1.256.882-2.186.882c-.574,0-1.084-.135-1.529-.404s-.789-.656-1.031-1.16-.363-1.094-.363-1.77c0-1.047.262-1.862.785-2.446s1.25-.876,2.18-.876c.898,0,1.612.299,2.142.896s.794,1.406.794,2.426ZM36.281,129.473c0,.82.164,1.445.492,1.875s.811.645,1.447.645,1.12-.214,1.45-.642.495-1.054.495-1.878c0-.816-.165-1.437-.495-1.86s-.817-.636-1.462-.636c-.637,0-1.117.209-1.441.627s-.486,1.041-.486,1.869Z"/><path d="M42.04,135.573c-.371,0-.672-.049-.902-.146v-.791c.27.078.535.117.797.117.305,0,.528-.083.671-.249s.214-.419.214-.759v-7.477h.973v7.406c0,1.266-.584,1.898-1.752,1.898ZM42.738,124.528c0-.223.055-.386.164-.489s.246-.155.41-.155c.156,0,.291.053.404.158s.17.268.17.486-.057.382-.17.489-.248.161-.404.161c-.164,0-.301-.054-.41-.161s-.164-.271-.164-.489Z"/><path d="M48.507,132.807c-.949,0-1.698-.289-2.247-.867s-.823-1.381-.823-2.408c0-1.035.255-1.857.765-2.467s1.194-.914,2.054-.914c.805,0,1.441.265,1.91.794s.703,1.228.703,2.095v.615h-4.424c.02.754.21,1.326.571,1.717s.87.586,1.526.586c.691,0,1.375-.145,2.051-.434v.867c-.344.148-.669.255-.976.319s-.677.097-1.11.097ZM48.243,126.965c-.516,0-.927.168-1.233.504s-.487.801-.542,1.395h3.357c0-.613-.137-1.083-.41-1.409s-.664-.489-1.172-.489Z"/><path d="M55.033,132.807c-.93,0-1.649-.286-2.159-.858s-.765-1.382-.765-2.429c0-1.074.259-1.904.776-2.49s1.255-.879,2.212-.879c.309,0,.617.033.926.1s.551.145.727.234l-.299.826c-.215-.086-.449-.157-.703-.214s-.479-.085-.674-.085c-1.305,0-1.957.832-1.957,2.496,0,.789.159,1.395.478,1.816s.79.633,1.415.633c.535,0,1.084-.115,1.646-.346v.861c-.43.223-.971.334-1.623.334Z"/><path d="M60.194,132.004c.172,0,.338-.013.498-.038s.287-.052.381-.079v.744c-.105.051-.261.093-.466.126s-.39.05-.554.05c-1.242,0-1.863-.654-1.863-1.963v-3.82h-.92v-.469l.92-.404.41-1.371h.562v1.488h1.863v.756h-1.863v3.779c0,.387.092.684.275.891s.436.311.756.311Z"/><path d="M69.29,132.69l-2.906-7.594h-.047c.055.602.082,1.316.082,2.145v5.449h-.92v-8.566h1.5l2.713,7.066h.047l2.736-7.066h1.488v8.566h-.996v-5.52c0-.633.027-1.32.082-2.062h-.047l-2.93,7.582h-.803Z"/><path d="M80.076,132.69l-.193-.914h-.047c-.32.402-.64.675-.958.817s-.716.214-1.192.214c-.637,0-1.136-.164-1.497-.492s-.542-.795-.542-1.4c0-1.297,1.037-1.977,3.111-2.039l1.09-.035v-.398c0-.504-.108-.876-.325-1.116s-.563-.36-1.04-.36c-.535,0-1.141.164-1.816.492l-.299-.744c.316-.172.663-.307,1.04-.404s.755-.146,1.134-.146c.766,0,1.333.17,1.702.51s.554.885.554,1.635v4.383h-.721ZM77.879,132.004c.605,0,1.081-.166,1.427-.498s.519-.797.519-1.395v-.58l-.973.041c-.773.027-1.331.147-1.673.36s-.513.544-.513.993c0,.352.106.619.319.803s.511.275.894.275Z"/><path d="M87.136,132.69v-4.154c0-.523-.119-.914-.357-1.172s-.611-.387-1.119-.387c-.672,0-1.164.182-1.477.545s-.469.963-.469,1.799v3.369h-.973v-6.422h.791l.158.879h.047c.199-.316.479-.562.838-.735s.76-.261,1.201-.261c.773,0,1.355.187,1.746.56s.586.97.586,1.79v4.189h-.973Z"/><path d="M93.995,132.69l-.193-.914h-.047c-.32.402-.64.675-.958.817s-.716.214-1.192.214c-.637,0-1.136-.164-1.497-.492s-.542-.795-.542-1.4c0-1.297,1.037-1.977,3.111-2.039l1.09-.035v-.398c0-.504-.108-.876-.325-1.116s-.563-.36-1.04-.36c-.535,0-1.141.164-1.816.492l-.299-.744c.316-.172.663-.307,1.04-.404s.755-.146,1.134-.146c.766,0,1.333.17,1.702.51s.554.885.554,1.635v4.383h-.721ZM91.798,132.004c.605,0,1.081-.166,1.427-.498s.519-.797.519-1.395v-.58l-.973.041c-.773.027-1.331.147-1.673.36s-.513.544-.513.993c0,.352.106.619.319.803s.511.275.894.275Z"/><path d="M101.916,126.268v.615l-1.189.141c.109.137.207.315.293.536s.129.47.129.747c0,.629-.215,1.131-.645,1.506s-1.02.562-1.77.562c-.191,0-.371-.016-.539-.047-.414.219-.621.494-.621.826,0,.176.072.306.217.39s.393.126.744.126h1.137c.695,0,1.229.146,1.603.439s.56.719.56,1.277c0,.711-.285,1.253-.855,1.626s-1.402.56-2.496.56c-.84,0-1.487-.156-1.942-.469s-.683-.754-.683-1.324c0-.391.125-.729.375-1.014s.602-.479,1.055-.58c-.164-.074-.302-.189-.413-.346s-.167-.338-.167-.545c0-.234.062-.439.188-.615s.322-.346.592-.51c-.332-.137-.603-.369-.812-.697s-.313-.703-.313-1.125c0-.703.211-1.245.633-1.626s1.02-.571,1.793-.571c.336,0,.639.039.908.117h2.221ZM96.795,133.768c0,.348.146.611.439.791s.713.27,1.26.27c.816,0,1.421-.122,1.813-.366s.589-.575.589-.993c0-.348-.107-.589-.322-.724s-.619-.202-1.213-.202h-1.166c-.441,0-.785.105-1.031.316s-.369.514-.369.908ZM97.323,128.325c0,.449.127.789.381,1.02s.607.346,1.061.346c.949,0,1.424-.461,1.424-1.383,0-.965-.48-1.447-1.441-1.447-.457,0-.809.123-1.055.369s-.369.611-.369,1.096Z"/><path d="M105.887,132.807c-.949,0-1.698-.289-2.247-.867s-.823-1.381-.823-2.408c0-1.035.255-1.857.765-2.467s1.194-.914,2.054-.914c.805,0,1.441.265,1.91.794s.703,1.228.703,2.095v.615h-4.424c.02.754.21,1.326.571,1.717s.87.586,1.526.586c.691,0,1.375-.145,2.051-.434v.867c-.344.148-.669.255-.976.319s-.677.097-1.11.097ZM105.623,126.965c-.516,0-.927.168-1.233.504s-.487.801-.542,1.395h3.357c0-.613-.137-1.083-.41-1.409s-.664-.489-1.172-.489Z"/><path d="M118.032,132.69v-4.178c0-.512-.109-.896-.328-1.151s-.559-.384-1.02-.384c-.605,0-1.053.174-1.342.521s-.434.883-.434,1.605v3.586h-.973v-4.178c0-.512-.109-.896-.328-1.151s-.561-.384-1.025-.384c-.609,0-1.056.183-1.339.548s-.425.964-.425,1.796v3.369h-.973v-6.422h.791l.158.879h.047c.184-.312.442-.557.776-.732s.708-.264,1.122-.264c1.004,0,1.66.363,1.969,1.09h.047c.191-.336.469-.602.832-.797s.777-.293,1.242-.293c.727,0,1.271.187,1.632.56s.542.97.542,1.79v4.189h-.973Z"/><path d="M123.661,132.807c-.949,0-1.698-.289-2.247-.867s-.823-1.381-.823-2.408c0-1.035.255-1.857.765-2.467s1.194-.914,2.054-.914c.805,0,1.441.265,1.91.794s.703,1.228.703,2.095v.615h-4.424c.02.754.21,1.326.571,1.717s.87.586,1.526.586c.691,0,1.375-.145,2.051-.434v.867c-.344.148-.669.255-.976.319s-.677.097-1.11.097ZM123.398,126.965c-.516,0-.927.168-1.233.504s-.487.801-.542,1.395h3.357c0-.613-.137-1.083-.41-1.409s-.664-.489-1.172-.489Z"/><path d="M132.016,132.69v-4.154c0-.523-.119-.914-.357-1.172s-.611-.387-1.119-.387c-.672,0-1.164.182-1.477.545s-.469.963-.469,1.799v3.369h-.973v-6.422h.791l.158.879h.047c.199-.316.479-.562.838-.735s.76-.261,1.201-.261c.773,0,1.355.187,1.746.56s.586.97.586,1.79v4.189h-.973Z"/><path d="M137.001,132.004c.172,0,.338-.013.498-.038s.287-.052.381-.079v.744c-.105.051-.261.093-.466.126s-.39.05-.554.05c-1.242,0-1.863-.654-1.863-1.963v-3.82h-.92v-.469l.92-.404.41-1.371h.562v1.488h1.863v.756h-1.863v3.779c0,.387.092.684.275.891s.436.311.756.311Z"/><path d="M29.206,141.619c0,.867-.296,1.534-.888,2.001s-1.438.7-2.54.7h-1.008v3.369h-.996v-8.566h2.221c2.141,0,3.211.832,3.211,2.496ZM24.771,143.465h.896c.883,0,1.521-.143,1.916-.428s.592-.742.592-1.371c0-.566-.186-.988-.557-1.266s-.949-.416-1.734-.416h-1.113v3.48Z"/><path d="M33.723,141.151c.285,0,.541.023.768.07l-.135.902c-.266-.059-.5-.088-.703-.088-.52,0-.964.211-1.333.633s-.554.947-.554,1.576v3.445h-.973v-6.422h.803l.111,1.189h.047c.238-.418.525-.74.861-.967s.705-.34,1.107-.34Z"/><path d="M39.58,147.69l-.193-.914h-.047c-.32.402-.64.675-.958.817s-.716.214-1.192.214c-.637,0-1.136-.164-1.497-.492s-.542-.795-.542-1.4c0-1.297,1.037-1.977,3.111-2.039l1.09-.035v-.398c0-.504-.108-.876-.325-1.116s-.563-.36-1.04-.36c-.535,0-1.141.164-1.816.492l-.299-.744c.316-.172.663-.307,1.04-.404s.755-.146,1.134-.146c.766,0,1.333.17,1.702.51s.554.885.554,1.635v4.383h-.721ZM37.383,147.004c.605,0,1.081-.166,1.427-.498s.519-.797.519-1.395v-.58l-.973.041c-.773.027-1.331.147-1.673.36s-.513.544-.513.993c0,.352.106.619.319.803s.511.275.894.275Z"/><path d="M44.812,147.807c-.93,0-1.649-.286-2.159-.858s-.765-1.382-.765-2.429c0-1.074.259-1.904.776-2.49s1.255-.879,2.212-.879c.309,0,.617.033.926.1s.551.145.727.234l-.299.826c-.215-.086-.449-.157-.703-.214s-.479-.085-.674-.085c-1.305,0-1.957.832-1.957,2.496,0,.789.159,1.395.478,1.816s.79.633,1.415.633c.535,0,1.084-.115,1.646-.346v.861c-.43.223-.971.334-1.623.334Z"/><path d="M49.972,147.004c.172,0,.338-.013.498-.038s.287-.052.381-.079v.744c-.105.051-.261.093-.466.126s-.39.05-.554.05c-1.242,0-1.863-.654-1.863-1.963v-3.82h-.92v-.469l.92-.404.41-1.371h.562v1.488h1.863v.756h-1.863v3.779c0,.387.092.684.275.891s.436.311.756.311Z"/><path d="M51.992,139.528c0-.223.055-.386.164-.489s.246-.155.41-.155c.156,0,.291.053.404.158s.17.268.17.486-.057.382-.17.489-.248.161-.404.161c-.164,0-.301-.054-.41-.161s-.164-.271-.164-.489ZM53.047,147.69h-.973v-6.422h.973v6.422Z"/><path d="M57.123,147.004c.172,0,.338-.013.498-.038s.287-.052.381-.079v.744c-.105.051-.261.093-.466.126s-.39.05-.554.05c-1.242,0-1.863-.654-1.863-1.963v-3.82h-.92v-.469l.92-.404.41-1.371h.562v1.488h1.863v.756h-1.863v3.779c0,.387.092.684.275.891s.436.311.756.311Z"/><path d="M59.144,139.528c0-.223.055-.386.164-.489s.246-.155.41-.155c.156,0,.291.053.404.158s.17.268.17.486-.057.382-.17.489-.248.161-.404.161c-.164,0-.301-.054-.41-.161s-.164-.271-.164-.489ZM60.198,147.69h-.973v-6.422h.973v6.422Z"/><path d="M67.743,144.473c0,1.047-.264,1.864-.791,2.452s-1.256.882-2.186.882c-.574,0-1.084-.135-1.529-.404s-.789-.656-1.031-1.16-.363-1.094-.363-1.77c0-1.047.262-1.862.785-2.446s1.25-.876,2.18-.876c.898,0,1.612.299,2.142.896s.794,1.406.794,2.426ZM62.851,144.473c0,.82.164,1.445.492,1.875s.811.645,1.447.645,1.12-.214,1.45-.642.495-1.054.495-1.878c0-.816-.165-1.437-.495-1.86s-.817-.636-1.462-.636c-.637,0-1.117.209-1.441.627s-.486,1.041-.486,1.869Z"/><path d="M73.783,147.69v-4.154c0-.523-.119-.914-.357-1.172s-.611-.387-1.119-.387c-.672,0-1.164.182-1.477.545s-.469.963-.469,1.799v3.369h-.973v-6.422h.791l.158.879h.047c.199-.316.479-.562.838-.735s.76-.261,1.201-.261c.773,0,1.355.187,1.746.56s.586.97.586,1.79v4.189h-.973Z"/><path d="M79.407,147.807c-.949,0-1.698-.289-2.247-.867s-.823-1.381-.823-2.408c0-1.035.255-1.857.765-2.467s1.194-.914,2.054-.914c.805,0,1.441.265,1.91.794s.703,1.228.703,2.095v.615h-4.424c.02.754.21,1.326.571,1.717s.87.586,1.526.586c.691,0,1.375-.145,2.051-.434v.867c-.344.148-.669.255-.976.319s-.677.097-1.11.097ZM79.144,141.965c-.516,0-.927.168-1.233.504s-.487.801-.542,1.395h3.357c0-.613-.137-1.083-.41-1.409s-.664-.489-1.172-.489Z"/><path d="M86.296,141.151c.285,0,.541.023.768.07l-.135.902c-.266-.059-.5-.088-.703-.088-.52,0-.964.211-1.333.633s-.554.947-.554,1.576v3.445h-.973v-6.422h.803l.111,1.189h.047c.238-.418.525-.74.861-.967s.705-.34,1.107-.34Z"/><path d="M89.562,142.694h-.823v-4.297h-1.462v-.697h3.744v.697h-1.459v4.297Z"/><path d="M93.938,142.694l-1.438-4.171h-.03c.007.094.015.221.023.383.009.161.018.335.024.519.007.185.01.361.01.53v2.739h-.744v-4.994h1.15l1.384,3.986h.021l1.432-3.986h1.147v4.994h-.782v-2.78c0-.153.003-.318.009-.496.006-.177.013-.346.021-.505s.014-.287.019-.383h-.027l-1.493,4.164h-.724Z"/><path d="M43.269,116.449l-3.199-8.174h-10.301l-3.164,8.174h-3.023l10.16-25.805h2.514l10.107,25.805h-3.094ZM39.138,105.585l-2.988-7.963c-.387-1.008-.785-2.244-1.195-3.709-.258,1.125-.627,2.361-1.107,3.709l-3.023,7.963h8.314Z"/><path d="M49.896,116.449v-25.699h2.988v25.699h-2.988Z"/><polygon points="61.179 100.256 63.563 100.256 63.563 93.857 69.871 93.857 69.871 91.655 63.563 91.655 63.563 85.256 61.179 85.256 61.179 91.655 54.871 91.655 54.871 93.857 61.179 93.857 61.179 100.256"/></svg>