<?xml version="1.0" encoding="UTF-8"?><svg id="Layer_1" xmlns="http://www.w3.org/2000/svg" xmlns:xlink="http://www.w3.org/1999/xlink" viewBox="0 0 161.027 161"><defs><linearGradient id="linear-gradient" x1=".514" y1="105.485" x2="160.514" y2="105.485" gradientUnits="userSpaceOnUse"><stop offset="0" stop-color="#c9a74f"/><stop offset=".532" stop-color="#faf59e"/><stop offset="1" stop-color="#c9a74f"/></linearGradient></defs><rect x=".514" y=".5" width="160" height="160" rx="4" ry="4" fill="#fff" stroke="#c9a74f" stroke-miterlimit="10"/><path d="M156.514,160.5H4.514c-2.209,0-4-1.791-4-4v-73.528c0-1.925,1.371-3.577,3.263-3.931l152-28.5c2.462-.462,4.737,1.427,4.737,3.931v102.028c0,2.209-1.791,4-4,4Z" fill="url(#linear-gradient)"/><path d="M26.221,134.754v5.938h-1.66v-14.277h3.916c1.751,0,3.045.335,3.882,1.006s1.255,1.68,1.255,3.027c0,1.888-.957,3.164-2.871,3.828l3.877,6.416h-1.963l-3.457-5.938h-2.979ZM26.221,133.328h2.275c1.172,0,2.031-.232,2.578-.698s.82-1.164.82-2.095c0-.944-.278-1.624-.835-2.041s-1.45-.625-2.681-.625h-2.158v5.459Z"/><path d="M41.201,140.886c-1.582,0-2.83-.481-3.745-1.445s-1.372-2.302-1.372-4.014c0-1.726.425-3.096,1.274-4.111s1.99-1.523,3.423-1.523c1.341,0,2.402.441,3.184,1.323s1.172,2.046,1.172,3.491v1.025h-7.373c.032,1.257.35,2.21.952,2.861s1.45.977,2.544.977c1.152,0,2.292-.241,3.418-.723v1.445c-.573.247-1.115.425-1.626.532s-1.128.161-1.851.161ZM40.762,131.15c-.859,0-1.545.28-2.056.84s-.812,1.335-.903,2.324h5.596c0-1.022-.228-1.805-.684-2.349s-1.106-.815-1.953-.815Z"/><path d="M54.483,140.691l-.322-1.523h-.078c-.534.671-1.066,1.125-1.597,1.362s-1.193.356-1.987.356c-1.062,0-1.893-.273-2.495-.82s-.903-1.325-.903-2.334c0-2.161,1.729-3.294,5.186-3.398l1.816-.059v-.664c0-.84-.181-1.46-.542-1.86s-.939-.601-1.733-.601c-.892,0-1.901.273-3.027.82l-.498-1.24c.527-.286,1.105-.511,1.733-.674s1.258-.244,1.89-.244c1.276,0,2.222.283,2.837.85s.923,1.475.923,2.725v7.305h-1.201ZM50.82,139.548c1.009,0,1.802-.276,2.378-.83s.864-1.328.864-2.324v-.967l-1.621.068c-1.289.046-2.219.246-2.788.601s-.854.906-.854,1.655c0,.586.178,1.032.532,1.338s.852.459,1.489.459Z"/><path d="M60.645,140.691h-1.621v-15.195h1.621v15.195Z"/><path d="M77.481,140.691h-7.959v-14.277h7.959v1.475h-6.299v4.6h5.918v1.465h-5.918v5.254h6.299v1.484Z"/><path d="M87.305,137.771c0,.996-.371,1.765-1.113,2.305s-1.784.811-3.125.811c-1.419,0-2.526-.225-3.32-.674v-1.504c.515.261,1.066.466,1.655.615s1.157.225,1.704.225c.847,0,1.497-.135,1.953-.405s.684-.682.684-1.235c0-.417-.181-.773-.542-1.069s-1.066-.646-2.114-1.05c-.996-.371-1.704-.695-2.124-.972s-.732-.591-.938-.942-.308-.771-.308-1.26c0-.872.354-1.561,1.064-2.065s1.683-.757,2.92-.757c1.152,0,2.278.234,3.379.703l-.576,1.318c-1.074-.442-2.048-.664-2.92-.664-.769,0-1.348.12-1.738.361s-.586.573-.586.996c0,.286.073.53.22.732s.383.394.708.576.95.446,1.875.791c1.27.462,2.127.928,2.573,1.396s.669,1.058.669,1.768Z"/><path d="M93.399,139.548c.286,0,.563-.021.83-.063s.479-.086.635-.132v1.24c-.176.085-.435.154-.776.21s-.649.083-.923.083c-2.07,0-3.105-1.091-3.105-3.271v-6.367h-1.533v-.781l1.533-.674.684-2.285h.938v2.48h3.105v1.26h-3.105v6.299c0,.645.153,1.14.459,1.484s.726.518,1.26.518Z"/><path d="M103.584,140.691l-.322-1.523h-.078c-.534.671-1.066,1.125-1.597,1.362s-1.193.356-1.987.356c-1.062,0-1.893-.273-2.495-.82s-.903-1.325-.903-2.334c0-2.161,1.729-3.294,5.186-3.398l1.816-.059v-.664c0-.84-.181-1.46-.542-1.86s-.939-.601-1.733-.601c-.892,0-1.901.273-3.027.82l-.498-1.24c.527-.286,1.105-.511,1.733-.674s1.258-.244,1.89-.244c1.276,0,2.222.283,2.837.85s.923,1.475.923,2.725v7.305h-1.201ZM99.922,139.548c1.009,0,1.802-.276,2.378-.83s.864-1.328.864-2.324v-.967l-1.621.068c-1.289.046-2.219.246-2.788.601s-.854.906-.854,1.655c0,.586.178,1.032.532,1.338s.852.459,1.489.459Z"/><path d="M111.582,139.548c.286,0,.563-.021.83-.063s.479-.086.635-.132v1.24c-.176.085-.435.154-.776.21s-.649.083-.923.083c-2.07,0-3.105-1.091-3.105-3.271v-6.367h-1.533v-.781l1.533-.674.684-2.285h.938v2.48h3.105v1.26h-3.105v6.299c0,.645.153,1.14.459,1.484s.726.518,1.26.518Z"/><path d="M119.707,140.886c-1.582,0-2.83-.481-3.745-1.445s-1.372-2.302-1.372-4.014c0-1.726.425-3.096,1.274-4.111s1.99-1.523,3.423-1.523c1.341,0,2.402.441,3.184,1.323s1.172,2.046,1.172,3.491v1.025h-7.373c.032,1.257.35,2.21.952,2.861s1.45.977,2.544.977c1.152,0,2.292-.241,3.418-.723v1.445c-.573.247-1.115.425-1.626.532s-1.128.161-1.851.161ZM119.268,131.15c-.859,0-1.545.28-2.056.84s-.812,1.335-.903,2.324h5.596c0-1.022-.228-1.805-.684-2.349s-1.106-.815-1.953-.815Z"/><path d="M128.27,133.697h-1.235v-6.446h-2.193v-1.045h5.616v1.045h-2.188v6.446Z"/><path d="M134.833,133.697l-2.157-6.257h-.046c.011.141.022.332.036.574s.025.502.036.779c.01.276.015.541.015.794v4.109h-1.117v-7.491h1.728l2.075,5.979h.03l2.147-5.979h1.722v7.491h-1.174v-4.171c0-.229.004-.477.013-.743s.019-.52.031-.758c.012-.239.021-.431.028-.574h-.041l-2.239,6.246h-1.087Z"/><path d="M43.271,116.45l-3.199-8.174h-10.301l-3.164,8.174h-3.023l10.16-25.805h2.514l10.107,25.805h-3.094ZM39.14,105.587l-2.988-7.963c-.387-1.008-.785-2.244-1.195-3.709-.258,1.125-.627,2.361-1.107,3.709l-3.023,7.963h8.314Z"/><path d="M49.898,116.45v-25.699h2.988v25.699h-2.988Z"/><polygon points="61.183 100.256 63.566 100.256 63.566 93.857 69.875 93.857 69.875 91.655 63.566 91.655 63.566 85.256 61.183 85.256 61.183 91.655 54.875 91.655 54.875 93.857 61.183 93.857 61.183 100.256"/><path d="M43.342,39.995l-1.32-4.333h-6.637l-1.32,4.333h-4.159l6.425-18.28h4.72l6.45,18.28h-4.159,0ZM41.101,32.424l-1.32-4.234c-.083-.282-.193-.645-.33-1.09-.137-.444-.274-.897-.411-1.357s-.247-.861-.33-1.202c-.083.341-.197.762-.342,1.264-.145.502-.284.978-.417,1.426-.133.448-.229.768-.286.959l-1.307,4.234h4.744,0Z" fill="#c7a84c"/><path d="M49.155,39.995v-18.206h3.86v18.206h-3.86Z" fill="#c7a84c"/><path d="M67.493,24.741c-.739,0-1.393.143-1.961.43-.569.286-1.046.699-1.432,1.239-.386.54-.679,1.191-.878,1.955-.199.764-.299,1.623-.299,2.578,0,1.287.16,2.385.479,3.294.319.909.816,1.602,1.488,2.08.673.477,1.54.716,2.603.716.739,0,1.48-.083,2.223-.249.743-.166,1.55-.403,2.422-.71v3.238c-.805.332-1.598.571-2.378.716-.781.145-1.656.218-2.628.218-1.876,0-3.418-.388-4.626-1.164-1.208-.776-2.102-1.864-2.684-3.263-.581-1.399-.872-3.032-.872-4.9,0-1.378.187-2.64.56-3.786.374-1.146.922-2.138,1.644-2.976.722-.838,1.615-1.486,2.677-1.943,1.063-.456,2.283-.685,3.661-.685.905,0,1.812.114,2.721.342.909.228,1.779.542,2.609.94l-1.245,3.138c-.681-.324-1.366-.606-2.055-.847-.689-.241-1.366-.361-2.03-.361h0Z"/><path d="M85.858,39.995h-10.485v-18.206h10.485v3.163h-6.625v3.997h6.164v3.163h-6.164v4.695h6.625v3.188h0Z"/><path d="M94.323,21.79c1.652,0,3.015.199,4.091.598,1.075.398,1.874,1,2.397,1.806.523.805.785,1.822.785,3.051,0,.83-.158,1.557-.473,2.179-.316.623-.731,1.15-1.245,1.581-.515.432-1.071.785-1.669,1.058l5.355,7.932h-4.284l-4.346-6.986h-2.055v6.986h-3.86v-18.206h5.305ZM94.049,24.953h-1.171v4.919h1.245c1.278,0,2.194-.214,2.746-.641.552-.427.828-1.056.828-1.887,0-.863-.297-1.478-.89-1.843-.594-.365-1.513-.548-2.758-.548h0Z"/><path d="M112.24,39.995h-3.86v-14.993h-4.944v-3.213h13.748v3.213h-4.944v14.993Z"/><path d="M128.762,35.861c0,.946-.222,1.745-.666,2.397-.444.652-1.106,1.146-1.986,1.482-.88.336-1.976.504-3.287.504-.971,0-1.804-.062-2.497-.187-.693-.125-1.393-.332-2.098-.623v-3.138c.755.341,1.567.621,2.434.841.867.22,1.629.33,2.285.33.739,0,1.268-.11,1.588-.33.319-.22.479-.508.479-.865,0-.232-.064-.442-.193-.629-.129-.187-.405-.398-.828-.635s-1.088-.546-1.992-.928c-.872-.365-1.588-.735-2.148-1.108-.56-.374-.976-.816-1.245-1.326-.27-.511-.405-1.16-.405-1.949,0-1.287.5-2.256,1.501-2.908,1-.652,2.339-.978,4.016-.978.863,0,1.687.087,2.472.261.785.174,1.592.453,2.422.834l-1.146,2.74c-.689-.299-1.339-.544-1.949-.735-.61-.191-1.231-.286-1.862-.286-.556,0-.976.075-1.258.224-.282.149-.423.378-.423.685,0,.224.073.423.218.598.145.174.427.367.847.579.419.212,1.036.484,1.849.816.789.324,1.474.662,2.055,1.015.581.353,1.029.789,1.345,1.307.315.519.473,1.189.473,2.011h0Z"/><path d="M35.19,28.224h-5.665l-4.183-4.183c.176-.239.28-.534.28-.852,0-.793-.645-1.439-1.439-1.439s-1.439.645-1.439,1.439.645,1.439,1.439,1.439c.183,0,.359-.035.52-.098l4.491,4.491h5.206l-.621,1.459h-8.287c-.173-.6-.727-1.04-1.382-1.04-.793,0-1.439.645-1.439,1.439s.645,1.439,1.439,1.439c.655,0,1.209-.44,1.382-1.04h7.948l-.621,1.459h-3.772l-4.491,4.491c-.161-.063-.337-.098-.52-.098-.793,0-1.439.645-1.439,1.439s.645,1.439,1.439,1.439,1.439-.645,1.439-1.439c0-.319-.104-.614-.28-.852l4.183-4.183h3.553l2.259-5.308h0Z" fill="#c7a84c"/><path d="M134.702,21.514c-2.059,0-3.728,1.669-3.728,3.728s1.669,3.728,3.728,3.728,3.728-1.669,3.728-3.728-1.669-3.728-3.728-3.728M134.702,28.224c-1.647,0-2.982-1.335-2.982-2.982s1.335-2.982,2.982-2.982,2.982,1.335,2.982,2.982-1.335,2.982-2.982,2.982M134.795,25.715h-.537v1.204h-.675v-3.277h1.215c.319-.02.635.071.895.257.218.184.334.461.313.746.007.197-.043.391-.145.559-.105.166-.259.296-.44.373l.708,1.338v.037h-.723l-.611-1.204M134.258,25.204h.544c.142.008.282-.039.391-.13.1-.097.15-.234.138-.373.011-.137-.036-.273-.13-.373-.11-.097-.256-.144-.403-.13h-.541v1.006Z"/></svg>