<?xml version="1.0" encoding="UTF-8"?><svg id="Layer_1" xmlns="http://www.w3.org/2000/svg" xmlns:xlink="http://www.w3.org/1999/xlink" viewBox="0 0 161.027 161"><defs><linearGradient id="linear-gradient" x1=".514" y1="105.485" x2="160.514" y2="105.485" gradientUnits="userSpaceOnUse"><stop offset="0" stop-color="#c9a74f"/><stop offset=".532" stop-color="#faf59e"/><stop offset="1" stop-color="#c9a74f"/></linearGradient></defs><rect x=".514" y=".5" width="160" height="160" rx="4" ry="4" fill="#fff" stroke="#c9a74f" stroke-miterlimit="10"/><path d="M156.514,160.5H4.514c-2.209,0-4-1.791-4-4v-73.528c0-1.925,1.371-3.577,3.263-3.931l152-28.5c2.462-.462,4.737,1.427,4.737,3.931v102.028c0,2.209-1.791,4-4,4Z" fill="url(#linear-gradient)"/><path d="M32.515,93.577c0,1.301-.443,2.302-1.332,3.002-.887.7-2.157,1.05-3.81,1.05h-1.512v5.054h-1.494v-12.85h3.331c3.211,0,4.816,1.248,4.816,3.744ZM25.861,96.346h1.345c1.324,0,2.282-.214,2.874-.642s.888-1.113.888-2.057c0-.85-.278-1.482-.835-1.898s-1.424-.624-2.602-.624h-1.67v5.221Z"/><path d="M39.379,92.874c.428,0,.812.035,1.151.105l-.202,1.354c-.398-.088-.75-.132-1.055-.132-.779,0-1.445.316-2,.949-.553.633-.83,1.421-.83,2.364v5.168h-1.459v-9.633h1.204l.167,1.784h.07c.357-.627.788-1.11,1.292-1.45s1.058-.51,1.661-.51Z"/><path d="M48.256,102.683l-.29-1.371h-.07c-.48.604-.96,1.013-1.437,1.227-.479.213-1.074.32-1.789.32-.955,0-1.704-.246-2.246-.738s-.812-1.192-.812-2.101c0-1.945,1.556-2.965,4.667-3.059l1.635-.053v-.598c0-.756-.163-1.313-.487-1.675-.326-.359-.846-.54-1.561-.54-.803,0-1.711.246-2.725.738l-.448-1.116c.475-.258.994-.46,1.56-.606s1.133-.22,1.701-.22c1.148,0,2,.255,2.553.765.555.51.831,1.327.831,2.452v6.574h-1.081ZM44.96,101.654c.908,0,1.622-.249,2.14-.747.52-.498.778-1.195.778-2.092v-.87l-1.459.062c-1.16.041-1.997.222-2.509.541-.514.319-.77.815-.77,1.489,0,.527.159.929.479,1.204s.767.413,1.341.413Z"/><path d="M56.192,102.858c-1.395,0-2.475-.429-3.238-1.287-.766-.858-1.147-2.073-1.147-3.644,0-1.611.388-2.856,1.165-3.735.775-.879,1.882-1.318,3.317-1.318.463,0,.926.05,1.389.149s.826.217,1.09.352l-.448,1.239c-.322-.129-.674-.235-1.055-.32s-.718-.128-1.011-.128c-1.957,0-2.936,1.248-2.936,3.744,0,1.184.238,2.092.716,2.725s1.186.949,2.123.949c.803,0,1.626-.173,2.47-.519v1.292c-.645.334-1.456.501-2.435.501Z"/><path d="M64.024,101.654c.258,0,.507-.019.747-.058.24-.037.431-.077.571-.118v1.116c-.158.076-.391.139-.699.189-.307.049-.584.074-.83.074-1.863,0-2.795-.981-2.795-2.944v-5.73h-1.38v-.703l1.38-.606.615-2.057h.844v2.232h2.795v1.134h-2.795v5.669c0,.58.138,1.025.413,1.336s.653.466,1.134.466Z"/><path d="M67.144,90.439c0-.334.082-.578.246-.733s.369-.233.615-.233c.234,0,.437.079.606.237s.255.401.255.729-.085.573-.255.733c-.17.162-.372.242-.606.242-.246,0-.451-.08-.615-.242-.164-.16-.246-.405-.246-.733ZM68.726,102.683h-1.459v-9.633h1.459v9.633Z"/><path d="M74.931,101.654c.258,0,.507-.019.747-.058.24-.037.431-.077.571-.118v1.116c-.158.076-.391.139-.699.189-.307.049-.584.074-.83.074-1.863,0-2.795-.981-2.795-2.944v-5.73h-1.38v-.703l1.38-.606.615-2.057h.844v2.232h2.795v1.134h-2.795v5.669c0,.58.138,1.025.413,1.336s.653.466,1.134.466Z"/><path d="M78.051,90.439c0-.334.082-.578.246-.733s.369-.233.615-.233c.234,0,.437.079.606.237s.255.401.255.729-.085.573-.255.733c-.17.162-.372.242-.606.242-.246,0-.451-.08-.615-.242-.164-.16-.246-.405-.246-.733ZM79.633,102.683h-1.459v-9.633h1.459v9.633Z"/><path d="M91.041,97.857c0,1.57-.396,2.797-1.187,3.679s-1.884,1.322-3.278,1.322c-.861,0-1.626-.202-2.294-.606s-1.184-.984-1.547-1.74-.545-1.641-.545-2.654c0-1.57.393-2.793,1.178-3.669s1.875-1.314,3.27-1.314c1.348,0,2.418.448,3.212,1.345s1.191,2.109,1.191,3.639ZM83.702,97.857c0,1.23.246,2.168.738,2.812s1.216.967,2.171.967,1.68-.321,2.176-.962c.494-.643.742-1.581.742-2.817,0-1.225-.248-2.154-.742-2.79-.496-.636-1.227-.954-2.193-.954-.955,0-1.676.313-2.162.94s-.729,1.562-.729,2.804Z"/><path d="M100.19,102.683v-6.231c0-.785-.179-1.371-.536-1.758s-.917-.58-1.679-.58c-1.008,0-1.746.272-2.215.817s-.703,1.444-.703,2.698v5.054h-1.459v-9.633h1.187l.237,1.318h.07c.299-.475.718-.842,1.257-1.104.539-.26,1.14-.391,1.802-.391,1.16,0,2.033.28,2.619.84s.879,1.454.879,2.685v6.284h-1.459Z"/><path d="M108.716,102.858c-1.424,0-2.548-.434-3.37-1.301-.824-.867-1.235-2.071-1.235-3.612,0-1.553.382-2.786,1.147-3.7.764-.914,1.791-1.371,3.08-1.371,1.207,0,2.162.397,2.865,1.191s1.055,1.841,1.055,3.142v.923h-6.636c.029,1.131.314,1.989.856,2.575s1.306.879,2.29.879c1.037,0,2.062-.217,3.076-.65v1.301c-.516.223-1.004.382-1.464.479-.46.096-1.015.145-1.665.145ZM108.32,94.096c-.773,0-1.391.252-1.85.756-.461.504-.731,1.201-.813,2.092h5.036c0-.92-.205-1.624-.615-2.114-.41-.488-.996-.733-1.758-.733Z"/><path d="M119.14,92.874c.428,0,.812.035,1.151.105l-.202,1.354c-.398-.088-.75-.132-1.055-.132-.779,0-1.445.316-2,.949-.553.633-.83,1.421-.83,2.364v5.168h-1.459v-9.633h1.204l.167,1.784h.07c.357-.627.788-1.11,1.292-1.45s1.058-.51,1.661-.51Z"/><path d="M123.35,89.833l-.352,4.641h-.923l-.36-4.641h1.635Z"/><path d="M132.288,100.055c0,.896-.334,1.588-1.002,2.074s-1.605.729-2.812.729c-1.277,0-2.273-.202-2.988-.606v-1.354c.463.234.959.419,1.489.554s1.042.202,1.534.202c.762,0,1.348-.121,1.758-.364s.615-.614.615-1.112c0-.375-.163-.695-.487-.962-.326-.267-.96-.582-1.903-.945-.896-.334-1.534-.625-1.911-.875-.379-.248-.66-.531-.844-.848-.186-.316-.277-.694-.277-1.134,0-.785.319-1.404.958-1.858s1.515-.682,2.628-.682c1.037,0,2.051.211,3.041.633l-.519,1.187c-.967-.398-1.843-.598-2.628-.598-.691,0-1.213.108-1.564.325s-.527.516-.527.896c0,.258.066.478.197.659.133.182.345.354.638.519s.855.401,1.688.712c1.143.416,1.914.835,2.315,1.257s.603.952.603,1.591Z"/><path d="M32.515,113.577c0,1.301-.443,2.302-1.332,3.002-.887.7-2.157,1.05-3.81,1.05h-1.512v5.054h-1.494v-12.85h3.331c3.211,0,4.816,1.248,4.816,3.744ZM25.861,116.346h1.345c1.324,0,2.282-.214,2.874-.642s.888-1.113.888-2.057c0-.85-.278-1.482-.835-1.898s-1.424-.624-2.602-.624h-1.67v5.221Z"/><path d="M36.443,122.683h-1.459v-13.676h1.459v13.676Z"/><path d="M45.461,122.683l-.29-1.371h-.07c-.48.604-.96,1.013-1.437,1.227-.479.213-1.074.32-1.789.32-.955,0-1.704-.246-2.246-.738s-.812-1.192-.812-2.101c0-1.945,1.556-2.965,4.667-3.059l1.635-.053v-.598c0-.756-.163-1.313-.487-1.675-.326-.359-.846-.54-1.561-.54-.803,0-1.711.246-2.725.738l-.448-1.116c.475-.258.994-.46,1.56-.606s1.133-.22,1.701-.22c1.148,0,2,.255,2.553.765.555.51.831,1.327.831,2.452v6.574h-1.081ZM42.165,121.654c.908,0,1.622-.249,2.14-.747.52-.498.778-1.195.778-2.092v-.87l-1.459.062c-1.16.041-1.997.222-2.509.541-.514.319-.77.815-.77,1.489,0,.527.159.929.479,1.204s.767.413,1.341.413Z"/><path d="M48.019,113.05h1.564l2.109,5.493c.463,1.254.75,2.159.861,2.716h.07c.076-.299.235-.81.479-1.533s1.039-2.949,2.387-6.676h1.564l-4.14,10.969c-.41,1.084-.89,1.853-1.437,2.307-.549.454-1.221.682-2.018.682-.445,0-.885-.05-1.318-.149v-1.169c.322.07.683.105,1.081.105,1.002,0,1.717-.562,2.145-1.688l.536-1.371-3.885-9.686Z"/><path d="M63.101,112.892c1.266,0,2.248.433,2.949,1.297.699.864,1.05,2.087,1.05,3.669s-.354,2.812-1.06,3.687c-.706.877-1.686,1.314-2.939,1.314-.627,0-1.199-.116-1.719-.348-.518-.23-.953-.587-1.305-1.067h-.105l-.308,1.239h-1.046v-13.676h1.459v3.322c0,.744-.023,1.412-.07,2.004h.07c.68-.961,1.688-1.441,3.023-1.441ZM62.89,114.113c-.996,0-1.714.286-2.153.856-.439.572-.659,1.534-.659,2.888s.226,2.322.677,2.905,1.175.874,2.171.874c.896,0,1.564-.326,2.004-.979s.659-1.593.659-2.817c0-1.254-.22-2.188-.659-2.804s-1.119-.923-2.039-.923Z"/><path d="M77.963,117.857c0,1.57-.396,2.797-1.187,3.679s-1.884,1.322-3.278,1.322c-.861,0-1.626-.202-2.294-.606s-1.184-.984-1.547-1.74-.545-1.641-.545-2.654c0-1.57.393-2.793,1.178-3.669s1.875-1.314,3.27-1.314c1.348,0,2.418.448,3.212,1.345s1.191,2.109,1.191,3.639ZM70.624,117.857c0,1.23.246,2.168.738,2.812s1.216.967,2.171.967,1.68-.321,2.176-.962c.494-.643.742-1.581.742-2.817,0-1.225-.248-2.154-.742-2.79-.496-.636-1.227-.954-2.193-.954-.955,0-1.676.313-2.162.94s-.729,1.562-.729,2.804Z"/><path d="M88.835,117.857c0,1.57-.396,2.797-1.187,3.679s-1.884,1.322-3.278,1.322c-.861,0-1.626-.202-2.294-.606s-1.184-.984-1.547-1.74-.545-1.641-.545-2.654c0-1.57.393-2.793,1.178-3.669s1.875-1.314,3.27-1.314c1.348,0,2.418.448,3.212,1.345s1.191,2.109,1.191,3.639ZM81.496,117.857c0,1.23.246,2.168.738,2.812s1.216.967,2.171.967,1.68-.321,2.176-.962c.494-.643.742-1.581.742-2.817,0-1.225-.248-2.154-.742-2.79-.496-.636-1.227-.954-2.193-.954-.955,0-1.676.313-2.162.94s-.729,1.562-.729,2.804Z"/><path d="M92.834,117.752c.252-.357.636-.826,1.151-1.406l3.111-3.296h1.731l-3.902,4.104,4.175,5.528h-1.767l-3.401-4.553-1.099.949v3.604h-1.441v-13.676h1.441v7.251c0,.322-.023.82-.07,1.494h.07Z"/><path d="M109.858,114.184h-2.452v8.499h-1.459v-8.499h-1.723v-.659l1.723-.527v-.536c0-2.367,1.034-3.551,3.103-3.551.51,0,1.107.103,1.793.308l-.378,1.169c-.562-.182-1.043-.272-1.441-.272-.551,0-.958.184-1.222.549-.264.367-.396.954-.396,1.763v.624h2.452v1.134Z"/><path d="M119.931,117.857c0,1.57-.396,2.797-1.187,3.679s-1.884,1.322-3.278,1.322c-.861,0-1.626-.202-2.294-.606s-1.184-.984-1.547-1.74-.545-1.641-.545-2.654c0-1.57.393-2.793,1.178-3.669s1.875-1.314,3.27-1.314c1.348,0,2.418.448,3.212,1.345s1.191,2.109,1.191,3.639ZM112.592,117.857c0,1.23.246,2.168.738,2.812s1.216.967,2.171.967,1.68-.321,2.176-.962c.494-.643.742-1.581.742-2.817,0-1.225-.248-2.154-.742-2.79-.496-.636-1.227-.954-2.193-.954-.955,0-1.676.313-2.162.94s-.729,1.562-.729,2.804Z"/><path d="M126.883,112.874c.428,0,.812.035,1.151.105l-.202,1.354c-.398-.088-.75-.132-1.055-.132-.779,0-1.445.316-2,.949-.553.633-.83,1.421-.83,2.364v5.168h-1.459v-9.633h1.204l.167,1.784h.07c.357-.627.788-1.11,1.292-1.45s1.058-.51,1.661-.51Z"/><path d="M25.861,137.339v5.344h-1.494v-12.85h3.524c1.576,0,2.74.302,3.494.905.752.604,1.129,1.512,1.129,2.725,0,1.699-.861,2.848-2.584,3.445l3.489,5.774h-1.767l-3.111-5.344h-2.681ZM25.861,136.056h2.048c1.055,0,1.828-.209,2.32-.629.492-.418.738-1.047.738-1.885,0-.85-.25-1.462-.752-1.837-.5-.375-1.305-.562-2.412-.562h-1.942v4.913Z"/><path d="M42.745,139.264c0,1.131-.41,2.013-1.23,2.646s-1.934.949-3.34.949c-1.523,0-2.695-.196-3.516-.589v-1.441c.527.223,1.102.398,1.723.527s1.236.193,1.846.193c.996,0,1.746-.188,2.25-.567.504-.377.756-.903.756-1.577,0-.445-.09-.81-.268-1.095-.18-.283-.479-.546-.896-.786-.42-.24-1.057-.513-1.912-.817-1.195-.428-2.05-.935-2.562-1.521s-.769-1.351-.769-2.294c0-.99.372-1.778,1.116-2.364s1.729-.879,2.953-.879c1.277,0,2.452.234,3.524.703l-.466,1.301c-1.061-.445-2.092-.668-3.094-.668-.791,0-1.409.17-1.854.51s-.668.812-.668,1.415c0,.445.082.811.246,1.094.164.285.44.545.831.783.389.236.985.499,1.788.786,1.348.48,2.274.996,2.782,1.547.506.551.76,1.266.76,2.145Z"/><path d="M53.45,142.683l-1.6-4.087h-5.15l-1.582,4.087h-1.512l5.08-12.902h1.257l5.054,12.902h-1.547ZM51.385,137.251l-1.494-3.981c-.193-.504-.393-1.122-.598-1.854-.129.562-.313,1.181-.554,1.854l-1.512,3.981h4.157Z"/><path d="M56.764,142.683v-12.85h1.494v12.85h-1.494Z"/><path d="M63.276,142.683h-1.494v-12.85h7.163v1.327h-5.669v4.702h5.326v1.327h-5.326v5.493Z"/><path d="M43.342,39.857l-1.32-4.333h-6.637l-1.32,4.333h-4.159l6.425-18.28h4.72l6.45,18.28h-4.159,0ZM41.101,32.286l-1.32-4.234c-.083-.282-.193-.645-.33-1.09-.137-.444-.274-.897-.411-1.357s-.247-.861-.33-1.202c-.083.341-.197.762-.342,1.264-.145.502-.284.978-.417,1.426-.133.448-.229.768-.286.959l-1.307,4.234h4.744,0Z" fill="#c7a84c"/><path d="M49.155,39.857v-18.206h3.86v18.206h-3.86Z" fill="#c7a84c"/><path d="M67.493,24.602c-.739,0-1.393.143-1.961.43-.569.286-1.046.699-1.432,1.239-.386.54-.679,1.191-.878,1.955-.199.764-.299,1.623-.299,2.578,0,1.287.16,2.385.479,3.294.319.909.816,1.602,1.488,2.08.673.477,1.54.716,2.603.716.739,0,1.48-.083,2.223-.249.743-.166,1.55-.403,2.422-.71v3.238c-.805.332-1.598.571-2.378.716-.781.145-1.656.218-2.628.218-1.876,0-3.418-.388-4.626-1.164-1.208-.776-2.102-1.864-2.684-3.263-.581-1.399-.872-3.032-.872-4.9,0-1.378.187-2.64.56-3.786.374-1.146.922-2.138,1.644-2.976.722-.838,1.615-1.486,2.677-1.943,1.063-.456,2.283-.685,3.661-.685.905,0,1.812.114,2.721.342.909.228,1.779.542,2.609.94l-1.245,3.138c-.681-.324-1.366-.606-2.055-.847-.689-.241-1.366-.361-2.03-.361h0Z"/><path d="M85.858,39.857h-10.485v-18.206h10.485v3.163h-6.625v3.997h6.164v3.163h-6.164v4.695h6.625v3.188h0Z"/><path d="M94.323,21.651c1.652,0,3.015.199,4.091.598,1.075.398,1.874,1,2.397,1.806.523.805.785,1.822.785,3.051,0,.83-.158,1.557-.473,2.179-.316.623-.731,1.15-1.245,1.581-.515.432-1.071.785-1.669,1.058l5.355,7.932h-4.284l-4.346-6.986h-2.055v6.986h-3.86v-18.206h5.305ZM94.049,24.814h-1.171v4.919h1.245c1.278,0,2.194-.214,2.746-.641.552-.427.828-1.056.828-1.887,0-.863-.297-1.478-.89-1.843-.594-.365-1.513-.548-2.758-.548h0Z"/><path d="M112.24,39.857h-3.86v-14.993h-4.944v-3.213h13.748v3.213h-4.944v14.993Z"/><path d="M128.762,35.722c0,.946-.222,1.745-.666,2.397-.444.652-1.106,1.146-1.986,1.482-.88.336-1.976.504-3.287.504-.971,0-1.804-.062-2.497-.187-.693-.125-1.393-.332-2.098-.623v-3.138c.755.341,1.567.621,2.434.841.867.22,1.629.33,2.285.33.739,0,1.268-.11,1.588-.33.319-.22.479-.508.479-.865,0-.232-.064-.442-.193-.629-.129-.187-.405-.398-.828-.635s-1.088-.546-1.992-.928c-.872-.365-1.588-.735-2.148-1.108-.56-.374-.976-.816-1.245-1.326-.27-.511-.405-1.16-.405-1.949,0-1.287.5-2.256,1.501-2.908,1-.652,2.339-.978,4.016-.978.863,0,1.687.087,2.472.261.785.174,1.592.453,2.422.834l-1.146,2.74c-.689-.299-1.339-.544-1.949-.735-.61-.191-1.231-.286-1.862-.286-.556,0-.976.075-1.258.224-.282.149-.423.378-.423.685,0,.224.073.423.218.598.145.174.427.367.847.579.419.212,1.036.484,1.849.816.789.324,1.474.662,2.055,1.015.581.353,1.029.789,1.345,1.307.315.519.473,1.189.473,2.011h0Z"/><path d="M35.19,28.086h-5.665l-4.183-4.183c.176-.239.28-.534.28-.852,0-.793-.645-1.439-1.439-1.439s-1.439.645-1.439,1.439.645,1.439,1.439,1.439c.183,0,.359-.035.52-.098l4.491,4.491h5.206l-.621,1.459h-8.287c-.173-.6-.727-1.04-1.382-1.04-.793,0-1.439.645-1.439,1.439s.645,1.439,1.439,1.439c.655,0,1.209-.44,1.382-1.04h7.948l-.621,1.459h-3.772l-4.491,4.491c-.161-.063-.337-.098-.52-.098-.793,0-1.439.645-1.439,1.439s.645,1.439,1.439,1.439,1.439-.645,1.439-1.439c0-.319-.104-.614-.28-.852l4.183-4.183h3.553l2.259-5.308h0Z" fill="#c7a84c"/><path d="M134.702,21.376c-2.059,0-3.728,1.669-3.728,3.728s1.669,3.728,3.728,3.728,3.728-1.669,3.728-3.728-1.669-3.728-3.728-3.728M134.702,28.085c-1.647,0-2.982-1.335-2.982-2.982s1.335-2.982,2.982-2.982,2.982,1.335,2.982,2.982-1.335,2.982-2.982,2.982M134.795,25.577h-.537v1.204h-.675v-3.277h1.215c.319-.02.635.071.895.257.218.184.334.461.313.746.007.197-.043.391-.145.559-.105.166-.259.296-.44.373l.708,1.338v.037h-.723l-.611-1.204M134.258,25.066h.544c.142.008.282-.039.391-.13.1-.097.15-.234.138-.373.011-.137-.036-.273-.13-.373-.11-.097-.256-.144-.403-.13h-.541v1.006Z"/></svg>