<?xml version="1.0" encoding="UTF-8"?><svg id="Layer_1" xmlns="http://www.w3.org/2000/svg" xmlns:xlink="http://www.w3.org/1999/xlink" viewBox="0 0 161.027 161"><defs><linearGradient id="linear-gradient" x1=".514" y1="105.481" x2="160.514" y2="105.481" gradientUnits="userSpaceOnUse"><stop offset="0" stop-color="#c9a74f"/><stop offset=".532" stop-color="#faf59e"/><stop offset="1" stop-color="#c9a74f"/></linearGradient></defs><rect x=".514" y=".496" width="160" height="160" rx="4" ry="4" fill="#fff" stroke="#c9a74f" stroke-miterlimit="10"/><path d="M156.514,160.496H4.514c-2.209,0-4-1.791-4-4v-73.528c0-1.925,1.371-3.577,3.263-3.931l152-28.5c2.462-.462,4.737,1.427,4.737,3.931v102.028c0,2.209-1.791,4-4,4Z" fill="url(#linear-gradient)"/><path d="M31.114,137.458c0,1.067-.388,1.9-1.162,2.498s-1.826.896-3.154.896c-1.438,0-2.546-.186-3.32-.557v-1.361c.498.211,1.04.377,1.627.498.587.122,1.168.184,1.743.184.94,0,1.649-.179,2.125-.536.476-.356.714-.854.714-1.489,0-.421-.084-.766-.253-1.034s-.451-.516-.847-.743c-.396-.227-.998-.483-1.806-.771-1.129-.404-1.936-.883-2.42-1.436-.484-.554-.727-1.276-.727-2.167,0-.936.352-1.68,1.055-2.233.703-.553,1.633-.83,2.789-.83,1.206,0,2.316.222,3.328.664l-.439,1.229c-1.002-.42-1.976-.631-2.922-.631-.747,0-1.331.161-1.752.482-.42.32-.631.766-.631,1.336,0,.421.078.765.232,1.033.155.269.417.515.785.739.368.224.931.472,1.689.743,1.272.453,2.148.94,2.627,1.461.479.52.718,1.195.718,2.025Z"/><path d="M34.684,131.589v5.902c0,.741.169,1.295.506,1.66.338.365.866.547,1.586.547.952,0,1.647-.26,2.088-.779.439-.521.66-1.37.66-2.549v-4.781h1.377v9.098h-1.137l-.199-1.221h-.074c-.283.449-.674.792-1.175,1.029-.501.238-1.072.357-1.714.357-1.107,0-1.936-.263-2.486-.789-.551-.525-.826-1.366-.826-2.523v-5.951h1.395Z"/><path d="M49.691,138.204c0,.848-.316,1.5-.947,1.959-.631.46-1.516.689-2.656.689-1.206,0-2.146-.191-2.822-.572v-1.279c.438.222.906.396,1.407.523s.983.191,1.448.191c.72,0,1.273-.115,1.66-.345.388-.229.582-.58.582-1.05,0-.354-.154-.657-.461-.909-.308-.252-.906-.55-1.797-.893-.848-.315-1.449-.591-1.806-.826-.357-.235-.623-.502-.797-.801-.175-.299-.262-.655-.262-1.071,0-.741.302-1.326.905-1.755.603-.429,1.43-.644,2.481-.644.979,0,1.937.199,2.872.598l-.49,1.121c-.912-.377-1.74-.564-2.481-.564-.653,0-1.146.102-1.478.307s-.498.487-.498.847c0,.243.062.451.187.622.125.172.325.335.603.49.276.155.808.379,1.594.672,1.078.394,1.808.789,2.187,1.188s.569.899.569,1.502Z"/><path d="M54.871,139.716c.243,0,.479-.019.706-.055.227-.036.406-.073.539-.111v1.054c-.149.072-.369.132-.66.179-.29.047-.552.07-.784.07-1.76,0-2.64-.927-2.64-2.781v-5.412h-1.303v-.664l1.303-.572.581-1.942h.797v2.108h2.64v1.07h-2.64v5.354c0,.548.13.969.39,1.262.261.293.617.44,1.071.44Z"/><path d="M63.528,140.686l-.274-1.295h-.066c-.453.57-.905.956-1.356,1.158s-1.015.303-1.689.303c-.902,0-1.609-.232-2.121-.697s-.768-1.126-.768-1.984c0-1.837,1.47-2.8,4.407-2.889l1.545-.049v-.564c0-.715-.154-1.241-.461-1.582-.308-.34-.799-.51-1.474-.51-.758,0-1.616.232-2.573.697l-.424-1.055c.449-.243.939-.435,1.474-.572.534-.139,1.069-.208,1.606-.208,1.085,0,1.889.241,2.411.722.523.482.784,1.254.784,2.316v6.209h-1.021ZM60.416,139.716c.857,0,1.531-.235,2.021-.706.49-.471.735-1.129.735-1.976v-.822l-1.379.059c-1.096.039-1.885.209-2.369.511s-.727.771-.727,1.407c0,.498.15.877.452,1.137s.724.391,1.267.391Z"/><path d="M67.273,129.124c0-.316.077-.547.232-.693s.349-.221.581-.221c.222,0,.412.075.572.225.161.149.241.379.241.689s-.08.54-.241.692c-.16.152-.351.229-.572.229-.232,0-.426-.076-.581-.229s-.232-.383-.232-.692ZM68.767,140.686h-1.378v-9.098h1.378v9.098Z"/><path d="M77.914,140.686v-5.885c0-.742-.169-1.295-.507-1.66-.337-.365-.865-.549-1.585-.549-.952,0-1.649.258-2.092.772s-.664,1.364-.664,2.548v4.773h-1.378v-9.098h1.121l.224,1.245h.066c.282-.448.678-.796,1.187-1.042.51-.246,1.077-.369,1.702-.369,1.096,0,1.92.265,2.474.793s.83,1.373.83,2.535v5.936h-1.378Z"/><path d="M87.718,140.686l-.274-1.295h-.066c-.453.57-.905.956-1.356,1.158s-1.015.303-1.689.303c-.902,0-1.609-.232-2.121-.697s-.768-1.126-.768-1.984c0-1.837,1.47-2.8,4.407-2.889l1.545-.049v-.564c0-.715-.154-1.241-.461-1.582-.308-.34-.799-.51-1.474-.51-.758,0-1.616.232-2.573.697l-.424-1.055c.449-.243.939-.435,1.474-.572.534-.139,1.069-.208,1.606-.208,1.085,0,1.889.241,2.411.722.523.482.784,1.254.784,2.316v6.209h-1.021ZM84.606,139.716c.857,0,1.531-.235,2.021-.706.49-.471.735-1.129.735-1.976v-.822l-1.379.059c-1.096.039-1.885.209-2.369.511s-.727.771-.727,1.407c0,.498.15.877.452,1.137s.724.391,1.267.391Z"/><path d="M95.811,131.439c1.195,0,2.124.408,2.785,1.225s.991,1.972.991,3.466-.333,2.654-1,3.481-1.592,1.241-2.776,1.241c-.592,0-1.133-.109-1.623-.328-.489-.219-.9-.555-1.232-1.008h-.1l-.29,1.17h-.988v-12.916h1.378v3.138c0,.703-.022,1.334-.066,1.893h.066c.642-.907,1.594-1.361,2.855-1.361ZM95.611,132.593c-.94,0-1.618.271-2.034.81-.414.54-.622,1.448-.622,2.728s.213,2.192.64,2.743c.426.551,1.109.825,2.05.825.847,0,1.478-.308,1.893-.925s.622-1.504.622-2.661c0-1.184-.207-2.066-.622-2.647s-1.057-.872-1.926-.872Z"/><path d="M101.878,129.124c0-.316.077-.547.232-.693s.349-.221.581-.221c.222,0,.412.075.572.225.161.149.241.379.241.689s-.08.54-.241.692c-.16.152-.351.229-.572.229-.232,0-.426-.076-.581-.229s-.232-.383-.232-.692ZM103.372,140.686h-1.378v-9.098h1.378v9.098Z"/><path d="M107.673,140.686h-1.378v-12.916h1.378v12.916Z"/><path d="M110.478,129.124c0-.316.077-.547.232-.693s.349-.221.581-.221c.222,0,.412.075.572.225.161.149.241.379.241.689s-.08.54-.241.692c-.16.152-.351.229-.572.229-.232,0-.426-.076-.581-.229s-.232-.383-.232-.692ZM111.972,140.686h-1.378v-9.098h1.378v9.098Z"/><path d="M117.833,139.716c.243,0,.479-.019.706-.055.227-.036.406-.073.539-.111v1.054c-.149.072-.369.132-.66.179-.29.047-.552.07-.784.07-1.76,0-2.64-.927-2.64-2.781v-5.412h-1.303v-.664l1.303-.572.581-1.942h.797v2.108h2.64v1.07h-2.64v5.354c0,.548.13.969.39,1.262.261.293.617.44,1.071.44Z"/><path d="M119.451,131.589h1.478l1.992,5.188c.438,1.185.708,2.04.813,2.565h.066c.072-.282.223-.765.452-1.448s.981-2.785,2.254-6.305h1.478l-3.909,10.359c-.388,1.023-.84,1.75-1.357,2.179s-1.152.644-1.905.644c-.421,0-.836-.047-1.245-.141v-1.104c.305.066.645.1,1.021.1.945,0,1.621-.531,2.025-1.594l.506-1.295-3.669-9.147Z"/><path d="M130.985,134.691h-1.028v-5.372h-1.828v-.871h4.68v.871h-1.823v5.372Z"/><path d="M136.456,134.691l-1.798-5.214h-.039c.009.117.019.276.03.479s.021.418.03.649c.008.23.013.451.013.661v3.425h-.931v-6.243h1.438l1.729,4.983h.025l1.789-4.983h1.435v6.243h-.978v-3.476c0-.19.004-.397.011-.619.007-.223.016-.433.025-.632s.018-.359.023-.479h-.034l-1.865,5.205h-.905Z"/><path d="M43.271,116.445l-3.199-8.174h-10.301l-3.164,8.174h-3.023l10.16-25.805h2.514l10.107,25.805h-3.094ZM39.14,105.582l-2.988-7.963c-.387-1.008-.785-2.244-1.195-3.709-.258,1.125-.627,2.361-1.107,3.709l-3.023,7.963h8.314Z"/><path d="M49.898,116.445v-25.699h2.988v25.699h-2.988Z"/><polygon points="61.179 100.252 63.562 100.252 63.562 93.853 69.871 93.853 69.871 91.651 63.562 91.651 63.562 85.252 61.179 85.252 61.179 91.651 54.871 91.651 54.871 93.853 61.179 93.853 61.179 100.252"/><path d="M43.342,39.991l-1.32-4.333h-6.637l-1.32,4.333h-4.159l6.425-18.28h4.72l6.45,18.28h-4.159,0ZM41.101,32.42l-1.32-4.234c-.083-.282-.193-.645-.33-1.09-.137-.444-.274-.897-.411-1.357s-.247-.861-.33-1.202c-.083.341-.197.762-.342,1.264-.145.502-.284.978-.417,1.426-.133.448-.229.768-.286.959l-1.307,4.234h4.744,0Z" fill="#c7a84c"/><path d="M49.155,39.991v-18.206h3.86v18.206h-3.86Z" fill="#c7a84c"/><path d="M67.493,24.737c-.739,0-1.393.143-1.961.43-.569.286-1.046.699-1.432,1.239-.386.54-.679,1.191-.878,1.955-.199.764-.299,1.623-.299,2.578,0,1.287.16,2.385.479,3.294.319.909.816,1.602,1.488,2.08.673.477,1.54.716,2.603.716.739,0,1.48-.083,2.223-.249.743-.166,1.55-.403,2.422-.71v3.238c-.805.332-1.598.571-2.378.716-.781.145-1.656.218-2.628.218-1.876,0-3.418-.388-4.626-1.164-1.208-.776-2.102-1.864-2.684-3.263-.581-1.399-.872-3.032-.872-4.9,0-1.378.187-2.64.56-3.786.374-1.146.922-2.138,1.644-2.976.722-.838,1.615-1.486,2.677-1.943,1.063-.456,2.283-.685,3.661-.685.905,0,1.812.114,2.721.342.909.228,1.779.542,2.609.94l-1.245,3.138c-.681-.324-1.366-.606-2.055-.847-.689-.241-1.366-.361-2.03-.361h0Z"/><path d="M85.858,39.991h-10.485v-18.206h10.485v3.163h-6.625v3.997h6.164v3.163h-6.164v4.695h6.625v3.188h0Z"/><path d="M94.323,21.786c1.652,0,3.015.199,4.091.598,1.075.398,1.874,1,2.397,1.806.523.805.785,1.822.785,3.051,0,.83-.158,1.557-.473,2.179-.316.623-.731,1.15-1.245,1.581-.515.432-1.071.785-1.669,1.058l5.355,7.932h-4.284l-4.346-6.986h-2.055v6.986h-3.86v-18.206h5.305ZM94.049,24.949h-1.171v4.919h1.245c1.278,0,2.194-.214,2.746-.641.552-.427.828-1.056.828-1.887,0-.863-.297-1.478-.89-1.843-.594-.365-1.513-.548-2.758-.548h0Z"/><path d="M112.24,39.991h-3.86v-14.993h-4.944v-3.213h13.748v3.213h-4.944v14.993Z"/><path d="M128.762,35.857c0,.946-.222,1.745-.666,2.397-.444.652-1.106,1.146-1.986,1.482-.88.336-1.976.504-3.287.504-.971,0-1.804-.062-2.497-.187-.693-.125-1.393-.332-2.098-.623v-3.138c.755.341,1.567.621,2.434.841.867.22,1.629.33,2.285.33.739,0,1.268-.11,1.588-.33.319-.22.479-.508.479-.865,0-.232-.064-.442-.193-.629-.129-.187-.405-.398-.828-.635s-1.088-.546-1.992-.928c-.872-.365-1.588-.735-2.148-1.108-.56-.374-.976-.816-1.245-1.326-.27-.511-.405-1.16-.405-1.949,0-1.287.5-2.256,1.501-2.908,1-.652,2.339-.978,4.016-.978.863,0,1.687.087,2.472.261.785.174,1.592.453,2.422.834l-1.146,2.74c-.689-.299-1.339-.544-1.949-.735-.61-.191-1.231-.286-1.862-.286-.556,0-.976.075-1.258.224-.282.149-.423.378-.423.685,0,.224.073.423.218.598.145.174.427.367.847.579.419.212,1.036.484,1.849.816.789.324,1.474.662,2.055,1.015.581.353,1.029.789,1.345,1.307.315.519.473,1.189.473,2.011h0Z"/><path d="M35.19,28.221h-5.665l-4.183-4.183c.176-.239.28-.534.28-.852,0-.793-.645-1.439-1.439-1.439s-1.439.645-1.439,1.439.645,1.439,1.439,1.439c.183,0,.359-.035.52-.098l4.491,4.491h5.206l-.621,1.459h-8.287c-.173-.6-.727-1.04-1.382-1.04-.793,0-1.439.645-1.439,1.439s.645,1.439,1.439,1.439c.655,0,1.209-.44,1.382-1.04h7.948l-.621,1.459h-3.772l-4.491,4.491c-.161-.063-.337-.098-.52-.098-.793,0-1.439.645-1.439,1.439s.645,1.439,1.439,1.439,1.439-.645,1.439-1.439c0-.319-.104-.614-.28-.852l4.183-4.183h3.553l2.259-5.308h0Z" fill="#c7a84c"/><path d="M134.702,21.51c-2.059,0-3.728,1.669-3.728,3.728s1.669,3.728,3.728,3.728,3.728-1.669,3.728-3.728-1.669-3.728-3.728-3.728M134.702,28.22c-1.647,0-2.982-1.335-2.982-2.982s1.335-2.982,2.982-2.982,2.982,1.335,2.982,2.982-1.335,2.982-2.982,2.982M134.795,25.711h-.537v1.204h-.675v-3.277h1.215c.319-.02.635.071.895.257.218.184.334.461.313.746.007.197-.043.391-.145.559-.105.166-.259.296-.44.373l.708,1.338v.037h-.723l-.611-1.204M134.258,25.201h.544c.142.008.282-.039.391-.13.1-.097.15-.234.138-.373.011-.137-.036-.273-.13-.373-.11-.097-.256-.144-.403-.13h-.541v1.006Z"/></svg>