<?xml version="1.0" encoding="UTF-8"?><svg id="Layer_1" xmlns="http://www.w3.org/2000/svg" xmlns:xlink="http://www.w3.org/1999/xlink" viewBox="0 0 161.027 161"><defs><linearGradient id="linear-gradient" x1=".514" y1="105.485" x2="160.514" y2="105.485" gradientUnits="userSpaceOnUse"><stop offset="0" stop-color="#c9a74f"/><stop offset=".532" stop-color="#faf59e"/><stop offset="1" stop-color="#c9a74f"/></linearGradient></defs><rect x=".514" y=".5" width="160" height="160" rx="4" ry="4" fill="#fff" stroke="#c9a74f" stroke-miterlimit="10"/><path d="M156.514,160.5H4.514c-2.209,0-4-1.791-4-4v-73.528c0-1.925,1.371-3.577,3.263-3.931l152-28.5c2.462-.462,4.737,1.427,4.737,3.931v102.028c0,2.209-1.791,4-4,4Z" fill="url(#linear-gradient)"/><path d="M32.716,126.414h1.787l-5.146,14.277h-1.641l-5.117-14.277h1.758l3.281,9.238c.377,1.062.676,2.093.898,3.096.234-1.055.539-2.106.918-3.154l3.262-9.18Z"/><path d="M36.085,127.088c0-.371.09-.643.273-.815.182-.173.41-.259.684-.259.26,0,.484.088.674.264.188.176.283.446.283.811s-.096.637-.283.815c-.189.179-.414.269-.674.269-.273,0-.502-.09-.684-.269-.184-.179-.273-.451-.273-.815ZM37.843,140.691h-1.621v-10.703h1.621v10.703Z"/><path d="M46.261,129.812c1.406,0,2.498.48,3.275,1.44.779.96,1.168,2.319,1.168,4.077s-.393,3.123-1.178,4.097c-.783.974-1.873,1.46-3.266,1.46-.697,0-1.334-.129-1.91-.386s-1.059-.652-1.449-1.187h-.117l-.342,1.377h-1.162v-15.195h1.621v3.691c0,.827-.027,1.569-.078,2.227h.078c.754-1.067,1.875-1.602,3.359-1.602ZM46.026,131.17c-1.107,0-1.904.317-2.393.952s-.732,1.704-.732,3.208.25,2.58.752,3.228c.5.647,1.305.972,2.412.972.996,0,1.738-.363,2.227-1.089s.732-1.77.732-3.13c0-1.394-.244-2.432-.732-3.115s-1.244-1.025-2.266-1.025Z"/><path d="M58.058,140.886c-1.582,0-2.83-.481-3.746-1.445-.914-.964-1.371-2.302-1.371-4.014,0-1.726.424-3.096,1.273-4.111s1.99-1.523,3.424-1.523c1.34,0,2.402.441,3.184,1.323s1.172,2.046,1.172,3.491v1.025h-7.373c.031,1.257.35,2.21.951,2.861.604.651,1.451.977,2.545.977,1.152,0,2.291-.241,3.418-.723v1.445c-.574.247-1.115.425-1.627.532-.51.107-1.127.161-1.85.161ZM57.618,131.15c-.859,0-1.545.28-2.057.84-.51.56-.812,1.335-.902,2.324h5.596c0-1.022-.229-1.805-.684-2.349-.457-.544-1.107-.815-1.953-.815Z"/><path d="M76.31,127.693c-1.57,0-2.809.522-3.717,1.567s-1.361,2.476-1.361,4.292c0,1.868.438,3.312,1.312,4.331.877,1.019,2.125,1.528,3.746,1.528.996,0,2.131-.179,3.408-.537v1.455c-.99.371-2.211.557-3.662.557-2.104,0-3.727-.638-4.869-1.914s-1.713-3.089-1.713-5.439c0-1.472.275-2.761.824-3.867.551-1.106,1.346-1.96,2.383-2.559,1.039-.599,2.262-.898,3.668-.898,1.496,0,2.805.273,3.926.82l-.703,1.426c-1.082-.508-2.162-.762-3.242-.762Z"/><path d="M91.808,135.33c0,1.745-.439,3.107-1.318,4.087s-2.094,1.47-3.643,1.47c-.957,0-1.807-.225-2.549-.674s-1.316-1.094-1.719-1.934c-.404-.84-.605-1.823-.605-2.949,0-1.745.436-3.104,1.309-4.077.871-.974,2.082-1.46,3.633-1.46,1.496,0,2.688.498,3.568,1.494.883.996,1.324,2.344,1.324,4.043ZM83.653,135.33c0,1.367.273,2.409.82,3.125s1.35,1.074,2.412,1.074,1.867-.356,2.416-1.069c.551-.713.826-1.756.826-3.13,0-1.36-.275-2.395-.826-3.101-.549-.706-1.361-1.06-2.436-1.06-1.062,0-1.863.349-2.402,1.045-.541.696-.811,1.735-.811,3.115Z"/><path d="M101.935,139.256h-.088c-.75,1.087-1.869,1.631-3.359,1.631-1.4,0-2.488-.479-3.268-1.436-.777-.957-1.166-2.317-1.166-4.082s.391-3.135,1.172-4.111,1.867-1.465,3.262-1.465c1.451,0,2.564.527,3.34,1.582h.127l-.068-.771-.039-.752v-4.355h1.621v15.195h-1.318l-.215-1.436ZM98.692,139.529c1.105,0,1.908-.301,2.406-.903s.748-1.574.748-2.915v-.342c0-1.517-.252-2.6-.758-3.247-.504-.647-1.311-.972-2.416-.972-.951,0-1.678.369-2.184,1.108-.504.739-.756,1.782-.756,3.13,0,1.367.25,2.399.752,3.096.5.696,1.236,1.045,2.207,1.045Z"/><path d="M111.427,140.886c-1.582,0-2.83-.481-3.746-1.445-.914-.964-1.371-2.302-1.371-4.014,0-1.726.424-3.096,1.273-4.111s1.99-1.523,3.424-1.523c1.34,0,2.402.441,3.184,1.323s1.172,2.046,1.172,3.491v1.025h-7.373c.031,1.257.35,2.21.951,2.861.604.651,1.451.977,2.545.977,1.152,0,2.291-.241,3.418-.723v1.445c-.574.247-1.115.425-1.627.532-.51.107-1.127.161-1.85.161ZM110.987,131.15c-.859,0-1.545.28-2.057.84-.51.56-.812,1.335-.902,2.324h5.596c0-1.022-.229-1.805-.684-2.349-.457-.544-1.107-.815-1.953-.815Z"/><path d="M123.009,129.793c.475,0,.9.039,1.279.117l-.225,1.504c-.443-.098-.834-.146-1.172-.146-.867,0-1.607.352-2.223,1.055s-.922,1.579-.922,2.627v5.742h-1.621v-10.703h1.338l.186,1.982h.078c.396-.696.875-1.233,1.436-1.611.559-.378,1.174-.566,1.846-.566Z"/><path d="M128.153,133.697h-1.236v-6.446h-2.193v-1.045h5.617v1.045h-2.188v6.446Z"/><path d="M134.716,133.697l-2.156-6.257h-.047c.012.141.023.332.037.574s.025.502.035.779c.01.276.016.541.016.794v4.109h-1.117v-7.491h1.727l2.076,5.979h.029l2.148-5.979h1.721v7.491h-1.174v-4.171c0-.229.004-.477.014-.743.008-.267.018-.52.031-.758.012-.239.021-.431.027-.574h-.041l-2.238,6.246h-1.088Z"/><path d="M43.27,116.45l-3.199-8.174h-10.301l-3.164,8.174h-3.023l10.16-25.805h2.514l10.107,25.805h-3.094ZM39.14,105.587l-2.988-7.963c-.387-1.008-.785-2.244-1.195-3.709-.258,1.125-.627,2.361-1.107,3.709l-3.023,7.963h8.314Z"/><path d="M49.897,116.45v-25.699h2.988v25.699h-2.988Z"/><polygon points="61.179 100.256 63.562 100.256 63.562 93.857 69.871 93.857 69.871 91.654 63.562 91.654 63.562 85.256 61.179 85.256 61.179 91.654 54.871 91.654 54.871 93.857 61.179 93.857 61.179 100.256"/><path d="M43.342,39.984l-1.32-4.333h-6.637l-1.32,4.333h-4.159l6.425-18.28h4.72l6.45,18.28h-4.159,0ZM41.101,32.412l-1.32-4.234c-.083-.282-.193-.645-.33-1.09-.137-.444-.274-.897-.411-1.357s-.247-.861-.33-1.202c-.083.341-.197.762-.342,1.264-.145.502-.284.978-.417,1.426-.133.448-.229.768-.286.959l-1.307,4.234h4.744,0Z" fill="#c7a84c"/><path d="M49.155,39.984v-18.206h3.86v18.206h-3.86Z" fill="#c7a84c"/><path d="M67.493,24.729c-.739,0-1.393.143-1.961.43-.569.286-1.046.699-1.432,1.239-.386.54-.679,1.191-.878,1.955-.199.764-.299,1.623-.299,2.578,0,1.287.16,2.385.479,3.294.319.909.816,1.602,1.488,2.08.673.477,1.54.716,2.603.716.739,0,1.48-.083,2.223-.249.743-.166,1.55-.403,2.422-.71v3.238c-.805.332-1.598.571-2.378.716-.781.145-1.656.218-2.628.218-1.876,0-3.418-.388-4.626-1.164-1.208-.776-2.102-1.864-2.684-3.263-.581-1.399-.872-3.032-.872-4.9,0-1.378.187-2.64.56-3.786.374-1.146.922-2.138,1.644-2.976.722-.838,1.615-1.486,2.677-1.943,1.063-.456,2.283-.685,3.661-.685.905,0,1.812.114,2.721.342.909.228,1.779.542,2.609.94l-1.245,3.138c-.681-.324-1.366-.606-2.055-.847-.689-.241-1.366-.361-2.03-.361h0Z"/><path d="M85.858,39.984h-10.485v-18.206h10.485v3.163h-6.625v3.997h6.164v3.163h-6.164v4.695h6.625v3.188h0Z"/><path d="M94.323,21.778c1.652,0,3.015.199,4.091.598,1.075.398,1.874,1,2.397,1.806.523.805.785,1.822.785,3.051,0,.83-.158,1.557-.473,2.179-.316.623-.731,1.15-1.245,1.581-.515.432-1.071.785-1.669,1.058l5.355,7.932h-4.284l-4.346-6.986h-2.055v6.986h-3.86v-18.206h5.305ZM94.049,24.941h-1.171v4.919h1.245c1.278,0,2.194-.214,2.746-.641.552-.427.828-1.056.828-1.887,0-.863-.297-1.478-.89-1.843-.594-.365-1.513-.548-2.758-.548h0Z"/><path d="M112.24,39.984h-3.86v-14.993h-4.944v-3.213h13.748v3.213h-4.944v14.993Z"/><path d="M128.762,35.849c0,.946-.222,1.745-.666,2.397-.444.652-1.106,1.146-1.986,1.482-.88.336-1.976.504-3.287.504-.971,0-1.804-.062-2.497-.187-.693-.125-1.393-.332-2.098-.623v-3.138c.755.341,1.567.621,2.434.841.867.22,1.629.33,2.285.33.739,0,1.268-.11,1.588-.33.319-.22.479-.508.479-.865,0-.232-.064-.442-.193-.629-.129-.187-.405-.398-.828-.635s-1.088-.546-1.992-.928c-.872-.365-1.588-.735-2.148-1.108-.56-.374-.976-.816-1.245-1.326-.27-.511-.405-1.16-.405-1.949,0-1.287.5-2.256,1.501-2.908,1-.652,2.339-.978,4.016-.978.863,0,1.687.087,2.472.261.785.174,1.592.453,2.422.834l-1.146,2.74c-.689-.299-1.339-.544-1.949-.735-.61-.191-1.231-.286-1.862-.286-.556,0-.976.075-1.258.224-.282.149-.423.378-.423.685,0,.224.073.423.218.598.145.174.427.367.847.579.419.212,1.036.484,1.849.816.789.324,1.474.662,2.055,1.015.581.353,1.029.789,1.345,1.307.315.519.473,1.189.473,2.011h0Z"/><path d="M35.19,28.213h-5.665l-4.183-4.183c.176-.239.28-.534.28-.852,0-.793-.645-1.439-1.439-1.439s-1.439.645-1.439,1.439.645,1.439,1.439,1.439c.183,0,.359-.035.52-.098l4.491,4.491h5.206l-.621,1.459h-8.287c-.173-.6-.727-1.04-1.382-1.04-.793,0-1.439.645-1.439,1.439s.645,1.439,1.439,1.439c.655,0,1.209-.44,1.382-1.04h7.948l-.621,1.459h-3.772l-4.491,4.491c-.161-.063-.337-.098-.52-.098-.793,0-1.439.645-1.439,1.439s.645,1.439,1.439,1.439,1.439-.645,1.439-1.439c0-.319-.104-.614-.28-.852l4.183-4.183h3.553l2.259-5.308h0Z" fill="#c7a84c"/><path d="M134.702,21.502c-2.059,0-3.728,1.669-3.728,3.728s1.669,3.728,3.728,3.728,3.728-1.669,3.728-3.728-1.669-3.728-3.728-3.728M134.702,28.212c-1.647,0-2.982-1.335-2.982-2.982s1.335-2.982,2.982-2.982,2.982,1.335,2.982,2.982-1.335,2.982-2.982,2.982M134.795,25.703h-.537v1.204h-.675v-3.277h1.215c.319-.02.635.071.895.257.218.184.334.461.313.746.007.197-.043.391-.145.559-.105.166-.259.296-.44.373l.708,1.338v.037h-.723l-.611-1.204M134.258,25.193h.544c.142.008.282-.039.391-.13.1-.097.15-.234.138-.373.011-.137-.036-.273-.13-.373-.11-.097-.256-.144-.403-.13h-.541v1.006Z"/></svg>