<?xml version="1.0" encoding="UTF-8"?><svg id="Layer_1" xmlns="http://www.w3.org/2000/svg" xmlns:xlink="http://www.w3.org/1999/xlink" viewBox="0 0 161.027 161"><defs><linearGradient id="linear-gradient" x1=".514" y1="105.485" x2="160.514" y2="105.485" gradientUnits="userSpaceOnUse"><stop offset="0" stop-color="#c9a74f"/><stop offset=".532" stop-color="#faf59e"/><stop offset="1" stop-color="#c9a74f"/></linearGradient></defs><rect x=".514" y=".5" width="160" height="160" rx="4" ry="4" fill="#fff" stroke="#c9a74f" stroke-miterlimit="10"/><path d="M156.514,160.5H4.514c-2.209,0-4-1.791-4-4v-73.528c0-1.925,1.371-3.577,3.263-3.931l152-28.5c2.462-.462,4.737,1.427,4.737,3.931v102.028c0,2.209-1.791,4-4,4Z" fill="url(#linear-gradient)"/><path d="M28.653,122.942c-1.176,0-2.105.392-2.785,1.175-.682.784-1.023,1.856-1.023,3.22,0,1.401.33,2.483.986,3.248.656.764,1.592,1.146,2.809,1.146.746,0,1.6-.135,2.557-.403v1.091c-.742.279-1.658.418-2.748.418-1.576,0-2.793-.479-3.65-1.436s-1.285-2.316-1.285-4.08c0-1.103.207-2.069.619-2.9.412-.829,1.008-1.469,1.787-1.918s1.695-.674,2.75-.674c1.123,0,2.104.205,2.943.615l-.527,1.068c-.811-.381-1.621-.57-2.432-.57Z"/><path d="M40.278,128.669c0,1.31-.33,2.331-.99,3.065-.658.735-1.568,1.103-2.73,1.103-.719,0-1.355-.168-1.912-.506-.557-.336-.986-.82-1.289-1.449-.303-.631-.455-1.367-.455-2.213,0-1.308.328-2.327.982-3.058.654-.729,1.562-1.095,2.725-1.095,1.123,0,2.016.373,2.678,1.121.66.746.992,1.758.992,3.031ZM34.16,128.669c0,1.025.205,1.808.615,2.344.41.538,1.014.807,1.811.807s1.4-.268,1.812-.803c.412-.534.619-1.316.619-2.348,0-1.02-.207-1.795-.619-2.325-.412-.529-1.021-.794-1.828-.794-.795,0-1.396.261-1.801.783-.406.522-.609,1.302-.609,2.336Z"/><path d="M47.903,132.69v-5.193c0-.653-.15-1.143-.447-1.465-.299-.322-.764-.482-1.398-.482-.84,0-1.455.227-1.846.681s-.586,1.204-.586,2.249v4.211h-1.217v-8.027h.988l.199,1.099h.059c.248-.396.598-.702,1.047-.919.449-.218.949-.326,1.502-.326.967,0,1.693.233,2.182.699.488.467.732,1.213.732,2.238v5.236h-1.215Z"/><path d="M54.207,131.833c.215,0,.422-.016.623-.047.199-.032.359-.064.477-.1v.931c-.133.063-.326.116-.582.157-.258.042-.488.062-.693.062-1.553,0-2.328-.817-2.328-2.453v-4.775h-1.15v-.586l1.15-.506.512-1.714h.703v1.86h2.33v.945h-2.33v4.724c0,.483.115.854.346,1.113.229.259.543.388.943.388Z"/><path d="M60.301,132.837c-1.186,0-2.121-.361-2.809-1.084-.686-.723-1.029-1.726-1.029-3.01,0-1.294.32-2.322.957-3.084s1.492-1.143,2.566-1.143c1.006,0,1.803.331,2.389.992.586.662.879,1.535.879,2.619v.769h-5.531c.025.942.264,1.658.715,2.146.451.489,1.088.732,1.908.732.863,0,1.719-.18,2.562-.541v1.084c-.43.186-.836.318-1.219.398-.383.081-.846.121-1.389.121ZM59.973,125.534c-.645,0-1.158.211-1.543.631-.383.42-.609,1.001-.678,1.742h4.197c0-.766-.17-1.354-.512-1.761-.342-.408-.83-.612-1.465-.612Z"/><path d="M67.26,128.581l-2.791-3.918h1.385l2.117,3.076,2.109-3.076h1.369l-2.791,3.918,2.938,4.109h-1.377l-2.248-3.252-2.271,3.252h-1.377l2.938-4.109Z"/><path d="M75.778,131.833c.215,0,.422-.016.621-.047.201-.032.359-.064.477-.1v.931c-.131.063-.326.116-.582.157-.256.042-.486.062-.691.062-1.553,0-2.33-.817-2.33-2.453v-4.775h-1.15v-.586l1.15-.506.514-1.714h.703v1.86h2.328v.945h-2.328v4.724c0,.483.113.854.344,1.113.229.259.545.388.945.388Z"/><path d="M30.037,148.69h-5.969v-10.708h5.969v1.106h-4.725v3.449h4.439v1.099h-4.439v3.94h4.725v1.113Z"/><path d="M37.721,148.69v-5.193c0-.653-.15-1.143-.447-1.465-.299-.322-.764-.482-1.398-.482-.84,0-1.455.227-1.846.681s-.586,1.204-.586,2.249v4.211h-1.217v-8.027h.988l.199,1.099h.059c.248-.396.598-.702,1.047-.919.449-.218.949-.326,1.502-.326.967,0,1.693.233,2.182.699.488.467.732,1.213.732,2.238v5.236h-1.215Z"/><path d="M48.004,140.663v.77l-1.486.176c.137.171.258.394.365.67.107.275.162.587.162.934,0,.786-.27,1.414-.807,1.883s-1.273.703-2.211.703c-.24,0-.465-.02-.674-.059-.518.273-.777.617-.777,1.032,0,.22.09.382.271.487.18.104.49.157.93.157h1.422c.869,0,1.537.183,2.002.55.467.365.699.897.699,1.596,0,.889-.355,1.566-1.068,2.033-.713.466-1.754.699-3.121.699-1.049,0-1.857-.195-2.428-.586-.568-.391-.854-.942-.854-1.655,0-.488.156-.911.469-1.267.312-.356.752-.599,1.318-.726-.205-.093-.377-.236-.516-.433-.139-.194-.209-.422-.209-.681,0-.293.078-.55.234-.769.156-.221.402-.433.74-.638-.416-.171-.754-.462-1.014-.872-.262-.41-.393-.879-.393-1.406,0-.879.264-1.556.791-2.032.527-.476,1.273-.714,2.24-.714.42,0,.799.049,1.137.146h2.775ZM41.602,150.038c0,.435.184.764.551.988.365.225.891.338,1.574.338,1.02,0,1.775-.153,2.268-.458.49-.306.734-.72.734-1.241,0-.436-.133-.736-.402-.905-.268-.168-.773-.253-1.516-.253h-1.457c-.553,0-.982.133-1.289.396-.309.264-.463.642-.463,1.135ZM42.262,143.233c0,.562.158.987.477,1.275.316.288.758.432,1.324.432,1.188,0,1.781-.576,1.781-1.729,0-1.206-.602-1.809-1.803-1.809-.57,0-1.01.153-1.318.461-.307.308-.461.765-.461,1.369Z"/><path d="M49.549,138.487c0-.277.068-.481.205-.611.137-.129.309-.193.514-.193.195,0,.363.065.506.197.141.132.211.335.211.607,0,.274-.07.478-.211.612-.143.134-.311.201-.506.201-.205,0-.377-.067-.514-.201-.137-.135-.205-.338-.205-.612ZM50.867,148.69h-1.215v-8.027h1.215v8.027Z"/><path d="M58.94,148.69v-5.193c0-.653-.15-1.143-.447-1.465-.299-.322-.764-.482-1.398-.482-.84,0-1.455.227-1.846.681s-.586,1.204-.586,2.249v4.211h-1.217v-8.027h.988l.199,1.099h.059c.248-.396.598-.702,1.047-.919.449-.218.949-.326,1.502-.326.967,0,1.693.233,2.182.699.488.467.732,1.213.732,2.238v5.236h-1.215Z"/><path d="M66.043,148.837c-1.186,0-2.121-.361-2.809-1.084-.686-.723-1.029-1.726-1.029-3.01,0-1.294.32-2.322.957-3.084s1.492-1.143,2.566-1.143c1.006,0,1.803.331,2.389.992.586.662.879,1.535.879,2.619v.769h-5.531c.025.942.264,1.658.715,2.146.451.489,1.088.732,1.908.732.863,0,1.719-.18,2.562-.541v1.084c-.43.186-.836.318-1.219.398-.383.081-.846.121-1.389.121ZM65.715,141.534c-.645,0-1.158.211-1.543.631-.383.42-.609,1.001-.678,1.742h4.197c0-.766-.17-1.354-.512-1.761-.342-.408-.83-.612-1.465-.612Z"/><path d="M74.459,148.837c-1.186,0-2.123-.361-2.809-1.084s-1.029-1.726-1.029-3.01c0-1.294.318-2.322.955-3.084.639-.762,1.494-1.143,2.568-1.143,1.006,0,1.801.331,2.387.992.586.662.879,1.535.879,2.619v.769h-5.529c.023.942.262,1.658.715,2.146.451.489,1.088.732,1.908.732.863,0,1.717-.18,2.562-.541v1.084c-.43.186-.836.318-1.219.398-.385.081-.846.121-1.389.121ZM74.129,141.534c-.645,0-1.158.211-1.541.631s-.609,1.001-.678,1.742h4.197c0-.766-.172-1.354-.514-1.761-.342-.408-.83-.612-1.465-.612Z"/><path d="M83.145,140.517c.357,0,.676.029.959.088l-.168,1.128c-.332-.073-.625-.11-.879-.11-.648,0-1.205.264-1.666.791s-.691,1.185-.691,1.971v4.307h-1.217v-8.027h1.004l.139,1.486h.059c.299-.521.656-.925,1.076-1.208s.883-.425,1.385-.425Z"/><path d="M85.504,138.487c0-.277.068-.481.205-.611.137-.129.307-.193.512-.193.195,0,.363.065.506.197.141.132.213.335.213.607,0,.274-.072.478-.213.612-.143.134-.311.201-.506.201-.205,0-.375-.067-.512-.201-.137-.135-.205-.338-.205-.612ZM86.822,148.69h-1.217v-8.027h1.217v8.027Z"/><path d="M94.895,148.69v-5.193c0-.653-.15-1.143-.447-1.465-.299-.322-.764-.482-1.398-.482-.84,0-1.455.227-1.846.681s-.586,1.204-.586,2.249v4.211h-1.217v-8.027h.988l.199,1.099h.059c.248-.396.598-.702,1.047-.919.449-.218.949-.326,1.502-.326.967,0,1.693.233,2.182.699.488.467.732,1.213.732,2.238v5.236h-1.215Z"/><path d="M105.178,140.663v.77l-1.488.176c.137.171.26.394.367.67.107.275.16.587.16.934,0,.786-.268,1.414-.805,1.883s-1.275.703-2.213.703c-.238,0-.463-.02-.674-.059-.518.273-.775.617-.775,1.032,0,.22.09.382.271.487.18.104.49.157.93.157h1.42c.869,0,1.537.183,2.004.55.467.365.699.897.699,1.596,0,.889-.357,1.566-1.068,2.033-.715.466-1.754.699-3.121.699-1.051,0-1.859-.195-2.428-.586s-.854-.942-.854-1.655c0-.488.156-.911.469-1.267.312-.356.752-.599,1.318-.726-.205-.093-.377-.236-.516-.433-.141-.194-.209-.422-.209-.681,0-.293.078-.55.234-.769.156-.221.402-.433.74-.638-.416-.171-.754-.462-1.016-.872s-.391-.879-.391-1.406c0-.879.264-1.556.791-2.032.527-.476,1.273-.714,2.24-.714.42,0,.799.049,1.135.146h2.777ZM98.776,150.038c0,.435.184.764.549.988.367.225.891.338,1.576.338,1.02,0,1.775-.153,2.266-.458.49-.306.736-.72.736-1.241,0-.436-.135-.736-.402-.905-.27-.168-.775-.253-1.516-.253h-1.459c-.551,0-.98.133-1.289.396-.307.264-.461.642-.461,1.135ZM99.436,143.233c0,.562.158.987.475,1.275.318.288.76.432,1.326.432,1.188,0,1.779-.576,1.779-1.729,0-1.206-.6-1.809-1.801-1.809-.572,0-1.012.153-1.318.461-.309.308-.461.765-.461,1.369Z"/><path d="M108.123,143.361h-.893v-4.655h-1.584v-.755h4.057v.755h-1.58v4.655Z"/><path d="M112.863,143.361l-1.559-4.519h-.033c.008.102.016.239.025.414.01.176.02.363.025.562.008.2.012.392.012.574v2.968h-.807v-5.41h1.248l1.498,4.318h.021l1.551-4.318h1.244v5.41h-.848v-3.013c0-.165.004-.344.01-.536s.014-.375.021-.548.016-.311.02-.414h-.029l-1.617,4.511h-.783Z"/><path d="M43.27,116.449l-3.199-8.174h-10.301l-3.164,8.174h-3.023l10.16-25.805h2.514l10.107,25.805h-3.094ZM39.139,105.586l-2.988-7.963c-.387-1.008-.785-2.244-1.195-3.709-.258,1.125-.627,2.361-1.107,3.709l-3.023,7.963h8.314Z"/><path d="M49.897,116.449v-25.699h2.988v25.699h-2.988Z"/><polygon points="61.18 100.256 63.563 100.256 63.563 93.857 69.872 93.857 69.872 91.655 63.563 91.655 63.563 85.256 61.18 85.256 61.18 91.655 54.872 91.655 54.872 93.857 61.18 93.857 61.18 100.256"/><path d="M43.342,39.856l-1.32-4.333h-6.637l-1.32,4.333h-4.159l6.425-18.28h4.72l6.45,18.28h-4.159,0ZM41.101,32.285l-1.32-4.234c-.083-.282-.193-.645-.33-1.09-.137-.444-.274-.897-.411-1.357s-.247-.861-.33-1.202c-.083.341-.197.762-.342,1.264-.145.502-.284.978-.417,1.426-.133.448-.229.768-.286.959l-1.307,4.234h4.744,0Z" fill="#c7a84c"/><path d="M49.155,39.856v-18.206h3.86v18.206h-3.86Z" fill="#c7a84c"/><path d="M67.493,24.602c-.739,0-1.393.143-1.961.43-.569.286-1.046.699-1.432,1.239-.386.54-.679,1.191-.878,1.955-.199.764-.299,1.623-.299,2.578,0,1.287.16,2.385.479,3.294.319.909.816,1.602,1.488,2.08.673.477,1.54.716,2.603.716.739,0,1.48-.083,2.223-.249.743-.166,1.55-.403,2.422-.71v3.238c-.805.332-1.598.571-2.378.716-.781.145-1.656.218-2.628.218-1.876,0-3.418-.388-4.626-1.164-1.208-.776-2.102-1.864-2.684-3.263-.581-1.399-.872-3.032-.872-4.9,0-1.378.187-2.64.56-3.786.374-1.146.922-2.138,1.644-2.976.722-.838,1.615-1.486,2.677-1.943,1.063-.456,2.283-.685,3.661-.685.905,0,1.812.114,2.721.342.909.228,1.779.542,2.609.94l-1.245,3.138c-.681-.324-1.366-.606-2.055-.847-.689-.241-1.366-.361-2.03-.361h0Z"/><path d="M85.858,39.856h-10.485v-18.206h10.485v3.163h-6.625v3.997h6.164v3.163h-6.164v4.695h6.625v3.188h0Z"/><path d="M94.323,21.651c1.652,0,3.015.199,4.091.598,1.075.398,1.874,1,2.397,1.806.523.805.785,1.822.785,3.051,0,.83-.158,1.557-.473,2.179-.316.623-.731,1.15-1.245,1.581-.515.432-1.071.785-1.669,1.058l5.355,7.932h-4.284l-4.346-6.986h-2.055v6.986h-3.86v-18.206h5.305ZM94.049,24.814h-1.171v4.919h1.245c1.278,0,2.194-.214,2.746-.641.552-.427.828-1.056.828-1.887,0-.863-.297-1.478-.89-1.843-.594-.365-1.513-.548-2.758-.548h0Z"/><path d="M112.24,39.856h-3.86v-14.993h-4.944v-3.213h13.748v3.213h-4.944v14.993Z"/><path d="M128.762,35.722c0,.946-.222,1.745-.666,2.397-.444.652-1.106,1.146-1.986,1.482-.88.336-1.976.504-3.287.504-.971,0-1.804-.062-2.497-.187-.693-.125-1.393-.332-2.098-.623v-3.138c.755.341,1.567.621,2.434.841.867.22,1.629.33,2.285.33.739,0,1.268-.11,1.588-.33.319-.22.479-.508.479-.865,0-.232-.064-.442-.193-.629-.129-.187-.405-.398-.828-.635s-1.088-.546-1.992-.928c-.872-.365-1.588-.735-2.148-1.108-.56-.374-.976-.816-1.245-1.326-.27-.511-.405-1.16-.405-1.949,0-1.287.5-2.256,1.501-2.908,1-.652,2.339-.978,4.016-.978.863,0,1.687.087,2.472.261.785.174,1.592.453,2.422.834l-1.146,2.74c-.689-.299-1.339-.544-1.949-.735-.61-.191-1.231-.286-1.862-.286-.556,0-.976.075-1.258.224-.282.149-.423.378-.423.685,0,.224.073.423.218.598.145.174.427.367.847.579.419.212,1.036.484,1.849.816.789.324,1.474.662,2.055,1.015.581.353,1.029.789,1.345,1.307.315.519.473,1.189.473,2.011h0Z"/><path d="M35.19,28.085h-5.665l-4.183-4.183c.176-.239.28-.534.28-.852,0-.793-.645-1.439-1.439-1.439s-1.439.645-1.439,1.439.645,1.439,1.439,1.439c.183,0,.359-.035.52-.098l4.491,4.491h5.206l-.621,1.459h-8.287c-.173-.6-.727-1.04-1.382-1.04-.793,0-1.439.645-1.439,1.439s.645,1.439,1.439,1.439c.655,0,1.209-.44,1.382-1.04h7.948l-.621,1.459h-3.772l-4.491,4.491c-.161-.063-.337-.098-.52-.098-.793,0-1.439.645-1.439,1.439s.645,1.439,1.439,1.439,1.439-.645,1.439-1.439c0-.319-.104-.614-.28-.852l4.183-4.183h3.553l2.259-5.308h0Z" fill="#c7a84c"/><path d="M134.702,21.375c-2.059,0-3.728,1.669-3.728,3.728s1.669,3.728,3.728,3.728,3.728-1.669,3.728-3.728-1.669-3.728-3.728-3.728M134.702,28.085c-1.647,0-2.982-1.335-2.982-2.982s1.335-2.982,2.982-2.982,2.982,1.335,2.982,2.982-1.335,2.982-2.982,2.982M134.795,25.576h-.537v1.204h-.675v-3.277h1.215c.319-.02.635.071.895.257.218.184.334.461.313.746.007.197-.043.391-.145.559-.105.166-.259.296-.44.373l.708,1.338v.037h-.723l-.611-1.204M134.258,25.066h.544c.142.008.282-.039.391-.13.1-.097.15-.234.138-.373.011-.137-.036-.273-.13-.373-.11-.097-.256-.144-.403-.13h-.541v1.006Z"/></svg>