<?xml version="1.0" encoding="UTF-8"?><svg id="Layer_1" xmlns="http://www.w3.org/2000/svg" xmlns:xlink="http://www.w3.org/1999/xlink" viewBox="0 0 161.027 161"><defs><linearGradient id="linear-gradient" x1=".5" y1="105.485" x2="160.5" y2="105.485" gradientUnits="userSpaceOnUse"><stop offset="0" stop-color="#c9a74f"/><stop offset=".532" stop-color="#faf59e"/><stop offset="1" stop-color="#c9a74f"/></linearGradient></defs><rect x=".5" y=".5" width="160" height="160" rx="4" ry="4" fill="#fff" stroke="#c9a74f" stroke-miterlimit="10"/><path d="M156.5,160.5H4.5c-2.209,0-4-1.791-4-4v-73.528c0-1.925,1.371-3.577,3.263-3.931l152-28.5c2.462-.462,4.737,1.427,4.737,3.931v102.028c0,2.209-1.791,4-4,4Z" fill="url(#linear-gradient)"/><path d="M33.062,131.08c0,1.373-.469,2.43-1.405,3.168-.938.738-2.278,1.109-4.022,1.109h-1.596v5.334h-1.576v-13.564h3.516c3.39,0,5.084,1.318,5.084,3.953ZM26.039,134.002h1.42c1.397,0,2.409-.227,3.033-.678.625-.451.938-1.174.938-2.17,0-.896-.294-1.564-.881-2.004-.588-.439-1.504-.658-2.746-.658h-1.764v5.51Z"/><path d="M42.628,140.692v-6.578c0-.828-.188-1.447-.565-1.855-.378-.408-.969-.611-1.772-.611-1.07,0-1.851.289-2.343.871-.491.582-.737,1.533-.737,2.857v5.316h-1.54v-14.436h1.54v4.369c0,.525-.024.961-.074,1.309h.093c.303-.488.734-.873,1.294-1.156.56-.281,1.198-.422,1.916-.422,1.243,0,2.176.297,2.797.887.622.59.933,1.529.933,2.816v6.633h-1.54Z"/><path d="M53.584,140.692l-.306-1.447h-.074c-.508.637-1.014,1.068-1.518,1.293-.504.227-1.133.34-1.888.34-1.008,0-1.799-.26-2.37-.779-.572-.52-.858-1.26-.858-2.217,0-2.055,1.642-3.131,4.927-3.229l1.725-.057v-.631c0-.797-.171-1.387-.515-1.768-.343-.381-.892-.57-1.646-.57-.848,0-1.806.26-2.876.779l-.473-1.178c.5-.273,1.049-.486,1.646-.641.597-.154,1.195-.232,1.795-.232,1.212,0,2.11.27,2.695.809.584.537.877,1.4.877,2.588v6.939h-1.142ZM50.104,139.606c.959,0,1.712-.264,2.26-.789.547-.525.82-1.262.82-2.207v-.918l-1.539.064c-1.225.043-2.108.232-2.649.57s-.812.861-.812,1.572c0,.557.168.98.506,1.271.337.291.809.436,1.414.436Z"/><path d="M62.537,130.338c.451,0,.856.037,1.215.111l-.213,1.428c-.421-.092-.792-.139-1.113-.139-.822,0-1.526.334-2.11,1.002-.585.668-.877,1.5-.877,2.496v5.455h-1.54v-10.168h1.271l.176,1.883h.074c.377-.662.832-1.172,1.363-1.531.532-.357,1.117-.537,1.754-.537Z"/><path d="M78.615,140.692v-6.615c0-.811-.174-1.418-.52-1.822-.347-.406-.885-.607-1.615-.607-.958,0-1.666.273-2.124.824s-.687,1.398-.687,2.543v5.678h-1.54v-6.615c0-.811-.173-1.418-.52-1.822-.347-.406-.888-.607-1.624-.607-.965,0-1.671.289-2.119.867-.449.578-.673,1.525-.673,2.844v5.334h-1.54v-10.168h1.252l.251,1.391h.074c.291-.494.7-.881,1.229-1.158.528-.279,1.121-.418,1.776-.418,1.59,0,2.629.574,3.117,1.725h.074c.303-.531.742-.951,1.317-1.262.575-.309,1.23-.463,1.967-.463,1.15,0,2.012.295,2.584.885.571.592.857,1.537.857,2.836v6.633h-1.539Z"/><path d="M89.58,140.692l-.306-1.447h-.074c-.508.637-1.014,1.068-1.518,1.293-.504.227-1.133.34-1.888.34-1.008,0-1.799-.26-2.37-.779-.572-.52-.858-1.26-.858-2.217,0-2.055,1.642-3.131,4.927-3.229l1.725-.057v-.631c0-.797-.171-1.387-.515-1.768-.343-.381-.892-.57-1.646-.57-.848,0-1.806.26-2.876.779l-.473-1.178c.5-.273,1.049-.486,1.646-.641.597-.154,1.195-.232,1.795-.232,1.212,0,2.11.27,2.695.809.584.537.877,1.4.877,2.588v6.939h-1.142ZM86.1,139.606c.959,0,1.712-.264,2.26-.789.547-.525.82-1.262.82-2.207v-.918l-1.539.064c-1.225.043-2.108.232-2.649.57s-.812.861-.812,1.572c0,.557.168.98.506,1.271.337.291.809.436,1.414.436Z"/><path d="M95.644,134.03h-1.166v-6.088h-2.071v-.986h5.304v.986h-2.066v6.088Z"/><path d="M101.843,134.03l-2.037-5.908h-.043c.009.133.021.312.033.541.013.23.024.475.034.736s.015.512.015.75v3.881h-1.056v-7.074h1.631l1.96,5.646h.029l2.028-5.646h1.626v7.074h-1.108v-3.939c0-.215.004-.449.012-.701s.018-.49.029-.717c.011-.225.02-.406.026-.541h-.039l-2.114,5.898h-1.026Z"/><path d="M43.27,116.45l-3.199-8.174h-10.301l-3.164,8.174h-3.023l10.16-25.805h2.514l10.107,25.805h-3.094ZM39.139,105.586l-2.988-7.963c-.387-1.008-.785-2.244-1.195-3.709-.258,1.125-.627,2.361-1.107,3.709l-3.023,7.963h8.314Z"/><path d="M49.897,116.45v-25.699h2.988v25.699h-2.988Z"/><polygon points="61.178 100.256 63.562 100.256 63.562 93.857 69.87 93.857 69.87 91.654 63.562 91.654 63.562 85.256 61.178 85.256 61.178 91.654 54.87 91.654 54.87 93.857 61.178 93.857 61.178 100.256"/><path d="M43.342,39.856l-1.32-4.333h-6.637l-1.32,4.333h-4.159l6.425-18.28h4.72l6.45,18.28h-4.159,0ZM41.101,32.285l-1.32-4.234c-.083-.282-.193-.645-.33-1.09-.137-.444-.274-.897-.411-1.357s-.247-.861-.33-1.202c-.083.341-.197.762-.342,1.264-.145.502-.284.978-.417,1.426-.133.448-.229.768-.286.959l-1.307,4.234h4.744,0Z" fill="#c7a84c"/><path d="M49.155,39.856v-18.206h3.86v18.206h-3.86Z" fill="#c7a84c"/><path d="M67.493,24.601c-.739,0-1.393.143-1.961.43-.569.286-1.046.699-1.432,1.239-.386.54-.679,1.191-.878,1.955-.199.764-.299,1.623-.299,2.578,0,1.287.16,2.385.479,3.294.319.909.816,1.602,1.488,2.08.673.477,1.54.716,2.603.716.739,0,1.48-.083,2.223-.249.743-.166,1.55-.403,2.422-.71v3.238c-.805.332-1.598.571-2.378.716-.781.145-1.656.218-2.628.218-1.876,0-3.418-.388-4.626-1.164-1.208-.776-2.102-1.864-2.684-3.263-.581-1.399-.872-3.032-.872-4.9,0-1.378.187-2.64.56-3.786.374-1.146.922-2.138,1.644-2.976.722-.838,1.615-1.486,2.677-1.943,1.063-.456,2.283-.685,3.661-.685.905,0,1.812.114,2.721.342.909.228,1.779.542,2.609.94l-1.245,3.138c-.681-.324-1.366-.606-2.055-.847-.689-.241-1.366-.361-2.03-.361h0Z"/><path d="M85.858,39.856h-10.485v-18.206h10.485v3.163h-6.625v3.997h6.164v3.163h-6.164v4.695h6.625v3.188h0Z"/><path d="M94.323,21.65c1.652,0,3.015.199,4.091.598,1.075.398,1.874,1,2.397,1.806.523.805.785,1.822.785,3.051,0,.83-.158,1.557-.473,2.179-.316.623-.731,1.15-1.245,1.581-.515.432-1.071.785-1.669,1.058l5.355,7.932h-4.284l-4.346-6.986h-2.055v6.986h-3.86v-18.206h5.305ZM94.049,24.813h-1.171v4.919h1.245c1.278,0,2.194-.214,2.746-.641.552-.427.828-1.056.828-1.887,0-.863-.297-1.478-.89-1.843-.594-.365-1.513-.548-2.758-.548h0Z"/><path d="M112.24,39.856h-3.86v-14.993h-4.944v-3.213h13.748v3.213h-4.944v14.993Z"/><path d="M128.762,35.722c0,.946-.222,1.745-.666,2.397-.444.652-1.106,1.146-1.986,1.482-.88.336-1.976.504-3.287.504-.971,0-1.804-.062-2.497-.187-.693-.125-1.393-.332-2.098-.623v-3.138c.755.341,1.567.621,2.434.841.867.22,1.629.33,2.285.33.739,0,1.268-.11,1.588-.33.319-.22.479-.508.479-.865,0-.232-.064-.442-.193-.629-.129-.187-.405-.398-.828-.635s-1.088-.546-1.992-.928c-.872-.365-1.588-.735-2.148-1.108-.56-.374-.976-.816-1.245-1.326-.27-.511-.405-1.16-.405-1.949,0-1.287.5-2.256,1.501-2.908,1-.652,2.339-.978,4.016-.978.863,0,1.687.087,2.472.261.785.174,1.592.453,2.422.834l-1.146,2.74c-.689-.299-1.339-.544-1.949-.735-.61-.191-1.231-.286-1.862-.286-.556,0-.976.075-1.258.224-.282.149-.423.378-.423.685,0,.224.073.423.218.598.145.174.427.367.847.579.419.212,1.036.484,1.849.816.789.324,1.474.662,2.055,1.015.581.353,1.029.789,1.345,1.307.315.519.473,1.189.473,2.011h0Z"/><path d="M35.19,28.085h-5.665l-4.183-4.183c.176-.239.28-.534.28-.852,0-.793-.645-1.439-1.439-1.439s-1.439.645-1.439,1.439.645,1.439,1.439,1.439c.183,0,.359-.035.52-.098l4.491,4.491h5.206l-.621,1.459h-8.287c-.173-.6-.727-1.04-1.382-1.04-.793,0-1.439.645-1.439,1.439s.645,1.439,1.439,1.439c.655,0,1.209-.44,1.382-1.04h7.948l-.621,1.459h-3.772l-4.491,4.491c-.161-.063-.337-.098-.52-.098-.793,0-1.439.645-1.439,1.439s.645,1.439,1.439,1.439,1.439-.645,1.439-1.439c0-.319-.104-.614-.28-.852l4.183-4.183h3.553l2.259-5.308h0Z" fill="#c7a84c"/><path d="M134.702,21.375c-2.059,0-3.728,1.669-3.728,3.728s1.669,3.728,3.728,3.728,3.728-1.669,3.728-3.728-1.669-3.728-3.728-3.728M134.702,28.084c-1.647,0-2.982-1.335-2.982-2.982s1.335-2.982,2.982-2.982,2.982,1.335,2.982,2.982-1.335,2.982-2.982,2.982M134.795,25.576h-.537v1.204h-.675v-3.277h1.215c.319-.02.635.071.895.257.218.184.334.461.313.746.007.197-.043.391-.145.559-.105.166-.259.296-.44.373l.708,1.338v.037h-.723l-.611-1.204M134.258,25.065h.544c.142.008.282-.039.391-.13.1-.097.15-.234.138-.373.011-.137-.036-.273-.13-.373-.11-.097-.256-.144-.403-.13h-.541v1.006Z"/></svg>