<svg width="200" height="200" viewBox="0 0 200 200" fill="none" xmlns="http://www.w3.org/2000/svg">
  <!-- Background Circle -->
  <circle cx="100" cy="100" r="90" fill="#FFB88C" fill-opacity="0.15"/>
  <circle cx="100" cy="100" r="85" stroke="#F79150" stroke-width="2" stroke-dasharray="8 4"/>
  
  <!-- Grid/Catalog Icons -->
  <g transform="translate(30, 50)">
    <!-- Card 1 -->
    <rect x="0" y="0" width="55" height="45" rx="6" fill="#F79150" opacity="0.9"/>
    <rect x="8" y="8" width="25" height="6" rx="2" fill="white" opacity="0.9"/>
    <rect x="8" y="20" width="39" height="4" rx="2" fill="white" opacity="0.6"/>
    <rect x="8" y="28" width="30" height="4" rx="2" fill="white" opacity="0.6"/>
    <circle cx="45" cy="38" r="6" fill="#8C4928"/>
    <path d="M42 38 L44 40 L48 36" stroke="white" stroke-width="2" stroke-linecap="round" stroke-linejoin="round"/>
  </g>
  
  <g transform="translate(115, 50)">
    <!-- Card 2 -->
    <rect x="0" y="0" width="55" height="45" rx="6" fill="#8C4928" opacity="0.9"/>
    <rect x="8" y="8" width="25" height="6" rx="2" fill="white" opacity="0.9"/>
    <rect x="8" y="20" width="39" height="4" rx="2" fill="white" opacity="0.6"/>
    <rect x="8" y="28" width="30" height="4" rx="2" fill="white" opacity="0.6"/>
    <circle cx="45" cy="38" r="6" fill="#F79150"/>
    <path d="M42 38 L44 40 L48 36" stroke="white" stroke-width="2" stroke-linecap="round" stroke-linejoin="round"/>
  </g>
  
  <g transform="translate(30, 110)">
    <!-- Card 3 -->
    <rect x="0" y="0" width="55" height="45" rx="6" fill="#8C4928" opacity="0.7"/>
    <rect x="8" y="8" width="25" height="6" rx="2" fill="white" opacity="0.9"/>
    <rect x="8" y="20" width="39" height="4" rx="2" fill="white" opacity="0.6"/>
    <rect x="8" y="28" width="30" height="4" rx="2" fill="white" opacity="0.6"/>
    <circle cx="45" cy="38" r="6" fill="#F79150"/>
    <path d="M42 38 L44 40 L48 36" stroke="white" stroke-width="2" stroke-linecap="round" stroke-linejoin="round"/>
  </g>
  
  <g transform="translate(115, 110)">
    <!-- Card 4 -->
    <rect x="0" y="0" width="55" height="45" rx="6" fill="#F79150" opacity="0.7"/>
    <rect x="8" y="8" width="25" height="6" rx="2" fill="white" opacity="0.9"/>
    <rect x="8" y="20" width="39" height="4" rx="2" fill="white" opacity="0.6"/>
    <rect x="8" y="28" width="30" height="4" rx="2" fill="white" opacity="0.6"/>
    <circle cx="45" cy="38" r="6" fill="#8C4928"/>
    <path d="M42 38 L44 40 L48 36" stroke="white" stroke-width="2" stroke-linecap="round" stroke-linejoin="round"/>
  </g>
  
  <!-- Shopping Cart Overlay -->
  <g transform="translate(140, 140)">
    <circle cx="20" cy="20" r="18" fill="#F79150"/>
    <path d="M12 14 L14 20 L24 20 L26 26 L14 26" stroke="white" stroke-width="2" fill="none" stroke-linecap="round" stroke-linejoin="round"/>
    <circle cx="16" cy="28" r="2" fill="white"/>
    <circle cx="24" cy="28" r="2" fill="white"/>
  </g>
  
  <!-- Label -->
  <text x="100" y="195" text-anchor="middle" font-family="Arial, sans-serif" font-size="12" font-weight="bold" fill="#F79150">Custom Selection</text>
</svg>
