<?xml version="1.0" encoding="UTF-8"?><svg id="Layer_1" xmlns="http://www.w3.org/2000/svg" xmlns:xlink="http://www.w3.org/1999/xlink" viewBox="0 0 161 161"><defs><linearGradient id="linear-gradient" x1=".5" y1="105.485" x2="160.5" y2="105.485" gradientUnits="userSpaceOnUse"><stop offset="0" stop-color="#c9a74f"/><stop offset=".532" stop-color="#faf59e"/><stop offset="1" stop-color="#c9a74f"/></linearGradient></defs><rect x=".5" y=".5" width="160" height="160" rx="4" ry="4" fill="#fff" stroke="#c9a74f" stroke-miterlimit="10"/><path d="M156.5,160.5H4.5c-2.209,0-4-1.791-4-4v-73.528c0-1.925,1.371-3.577,3.263-3.931l152-28.5c2.462-.462,4.737,1.427,4.737,3.931v102.028c0,2.209-1.791,4-4,4Z" fill="url(#linear-gradient)"/><path d="M32.186,131.69h-1.244v-5.039h-5.641v5.039h-1.244v-10.708h1.244v4.556h5.641v-4.556h1.244v10.708Z"/><path d="M38.331,131.837c-1.186,0-2.123-.361-2.809-1.084s-1.029-1.726-1.029-3.01c0-1.294.318-2.322.955-3.084.639-.762,1.494-1.143,2.568-1.143,1.006,0,1.801.331,2.387.992.586.662.879,1.535.879,2.619v.769h-5.529c.023.942.262,1.658.715,2.146.451.489,1.088.732,1.908.732.863,0,1.717-.18,2.562-.541v1.084c-.43.186-.836.318-1.219.398-.385.081-.846.121-1.389.121ZM38.001,124.534c-.645,0-1.158.211-1.541.631s-.609,1.001-.678,1.742h4.197c0-.766-.172-1.354-.514-1.761-.342-.408-.83-.612-1.465-.612Z"/><path d="M48.292,131.69l-.24-1.143h-.059c-.402.503-.801.844-1.199,1.021-.396.179-.895.268-1.49.268-.795,0-1.42-.205-1.871-.615s-.678-.993-.678-1.75c0-1.621,1.297-2.471,3.891-2.549l1.361-.045v-.498c0-.629-.135-1.095-.406-1.395-.271-.301-.705-.451-1.301-.451-.668,0-1.426.205-2.27.615l-.373-.93c.395-.215.828-.383,1.299-.506.471-.121.943-.183,1.418-.183.957,0,1.666.212,2.127.638.461.424.693,1.105.693,2.043v5.479h-.902ZM45.546,130.833c.756,0,1.352-.207,1.783-.622s.648-.996.648-1.743v-.725l-1.215.051c-.967.034-1.664.185-2.092.45-.428.267-.641.681-.641,1.241,0,.439.133.774.398,1.004s.639.344,1.117.344Z"/><path d="M52.913,131.69h-1.215v-11.396h1.215v11.396Z"/><path d="M58.085,130.833c.215,0,.422-.016.623-.047.199-.032.359-.064.477-.1v.931c-.133.063-.326.116-.582.157-.258.042-.488.062-.693.062-1.553,0-2.328-.817-2.328-2.453v-4.775h-1.15v-.586l1.15-.506.512-1.714h.703v1.86h2.33v.945h-2.33v4.724c0,.483.115.854.346,1.113.229.259.543.388.943.388Z"/><path d="M66.28,131.69v-5.193c0-.653-.148-1.143-.445-1.465-.299-.322-.766-.482-1.4-.482-.844,0-1.461.229-1.85.688-.387.46-.582,1.212-.582,2.256v4.197h-1.215v-11.396h1.215v3.449c0,.416-.02.76-.059,1.033h.074c.238-.386.58-.689,1.021-.912.441-.222.945-.333,1.512-.333.982,0,1.719.233,2.209.699.49.467.736,1.208.736,2.224v5.236h-1.217Z"/><path d="M73.202,131.837c-1.162,0-2.061-.357-2.699-1.073-.637-.715-.955-1.727-.955-3.036,0-1.342.324-2.38.971-3.112s1.568-1.099,2.766-1.099c.385,0,.77.042,1.156.125.385.083.689.181.908.293l-.373,1.032c-.27-.107-.562-.196-.879-.268-.318-.07-.6-.106-.842-.106-1.633,0-2.447,1.041-2.447,3.121,0,.986.199,1.742.598,2.27.396.527.986.791,1.768.791.67,0,1.355-.144,2.059-.432v1.076c-.537.279-1.213.418-2.029.418Z"/><path d="M82.071,131.69l-.24-1.143h-.059c-.402.503-.801.844-1.199,1.021-.396.179-.895.268-1.49.268-.795,0-1.42-.205-1.871-.615s-.678-.993-.678-1.75c0-1.621,1.297-2.471,3.891-2.549l1.361-.045v-.498c0-.629-.135-1.095-.406-1.395-.271-.301-.705-.451-1.301-.451-.668,0-1.426.205-2.27.615l-.373-.93c.395-.215.828-.383,1.299-.506.471-.121.943-.183,1.418-.183.957,0,1.666.212,2.127.638.461.424.693,1.105.693,2.043v5.479h-.902ZM79.325,130.833c.756,0,1.352-.207,1.783-.622s.648-.996.648-1.743v-.725l-1.215.051c-.967.034-1.664.185-2.092.45-.428.267-.641.681-.641,1.241,0,.439.133.774.398,1.004s.639.344,1.117.344Z"/><path d="M89.139,123.517c.355,0,.676.029.959.088l-.168,1.128c-.332-.073-.625-.11-.879-.11-.65,0-1.205.264-1.666.791-.463.527-.693,1.185-.693,1.971v4.307h-1.215v-8.027h1.004l.139,1.486h.059c.297-.521.656-.925,1.076-1.208s.881-.425,1.385-.425Z"/><path d="M94.991,131.837c-1.186,0-2.123-.361-2.809-1.084s-1.029-1.726-1.029-3.01c0-1.294.318-2.322.955-3.084.639-.762,1.494-1.143,2.568-1.143,1.006,0,1.801.331,2.387.992.586.662.879,1.535.879,2.619v.769h-5.529c.023.942.262,1.658.715,2.146.451.489,1.088.732,1.908.732.863,0,1.717-.18,2.562-.541v1.084c-.43.186-.836.318-1.219.398-.385.081-.846.121-1.389.121ZM94.661,124.534c-.645,0-1.158.211-1.541.631s-.609,1.001-.678,1.742h4.197c0-.766-.172-1.354-.514-1.761-.342-.408-.83-.612-1.465-.612Z"/><path d="M30.788,149.69l-1.334-3.406h-4.291l-1.318,3.406h-1.26l4.232-10.752h1.049l4.211,10.752h-1.289ZM29.067,145.164l-1.246-3.317c-.16-.42-.328-.936-.498-1.546-.107.469-.262.984-.461,1.546l-1.26,3.317h3.465Z"/><path d="M38.829,148.614h-.064c-.562.815-1.402,1.223-2.52,1.223-1.051,0-1.867-.359-2.451-1.076-.584-.719-.875-1.738-.875-3.062s.293-2.351.879-3.083,1.4-1.099,2.447-1.099c1.088,0,1.922.396,2.504,1.187h.096l-.051-.579-.029-.563v-3.267h1.215v11.396h-.988l-.162-1.076ZM36.397,148.819c.83,0,1.432-.227,1.807-.678.373-.452.561-1.181.561-2.187v-.257c0-1.137-.189-1.949-.568-2.435-.379-.486-.982-.729-1.812-.729-.713,0-1.26.277-1.637.832-.379.554-.568,1.336-.568,2.348,0,1.025.188,1.799.564,2.321.375.522.928.784,1.654.784Z"/><path d="M52.79,149.69v-5.223c0-.639-.139-1.119-.41-1.438-.275-.32-.699-.479-1.275-.479-.758,0-1.316.217-1.678.651s-.541,1.104-.541,2.007v4.482h-1.217v-5.223c0-.639-.137-1.119-.41-1.438-.273-.32-.701-.479-1.281-.479-.762,0-1.32.228-1.674.685-.354.456-.531,1.204-.531,2.245v4.211h-1.215v-8.027h.988l.197,1.099h.059c.23-.391.553-.696.971-.915.418-.221.885-.33,1.402-.33,1.256,0,2.076.454,2.461,1.362h.059c.24-.42.586-.752,1.041-.996.453-.244.971-.366,1.553-.366.908,0,1.588.233,2.039.699.451.467.678,1.213.678,2.238v5.236h-1.215Z"/><path d="M56.407,139.487c0-.277.068-.481.205-.611.137-.129.309-.193.514-.193.195,0,.363.065.506.197.141.132.211.335.211.607,0,.274-.07.478-.211.612-.143.134-.311.201-.506.201-.205,0-.377-.067-.514-.201-.137-.135-.205-.338-.205-.612ZM57.725,149.69h-1.215v-8.027h1.215v8.027Z"/><path d="M65.797,149.69v-5.193c0-.653-.15-1.143-.447-1.465-.299-.322-.764-.482-1.398-.482-.84,0-1.455.227-1.846.681s-.586,1.204-.586,2.249v4.211h-1.217v-8.027h.988l.199,1.099h.059c.248-.396.598-.702,1.047-.919.449-.218.949-.326,1.502-.326.967,0,1.693.233,2.182.699.488.467.732,1.213.732,2.238v5.236h-1.215Z"/><path d="M69.407,139.487c0-.277.068-.481.205-.611.137-.129.309-.193.514-.193.195,0,.363.065.506.197.141.132.211.335.211.607,0,.274-.07.478-.211.612-.143.134-.311.201-.506.201-.205,0-.377-.067-.514-.201-.137-.135-.205-.338-.205-.612ZM70.725,149.69h-1.215v-8.027h1.215v8.027Z"/><path d="M78.483,147.501c0,.746-.277,1.323-.834,1.729s-1.34.607-2.344.607c-1.066,0-1.896-.168-2.49-.506v-1.127c.385.195.799.349,1.24.461s.869.168,1.279.168c.633,0,1.121-.101,1.465-.304.34-.202.512-.511.512-.927,0-.312-.135-.579-.406-.802-.271-.222-.801-.484-1.586-.787-.746-.278-1.277-.521-1.594-.729-.314-.208-.549-.443-.703-.707-.152-.264-.23-.579-.23-.944,0-.654.266-1.171.799-1.55.531-.378,1.262-.567,2.189-.567.865,0,1.709.176,2.535.527l-.432.988c-.807-.331-1.537-.498-2.191-.498-.576,0-1.01.091-1.303.271s-.439.43-.439.747c0,.215.055.398.164.55s.287.295.531.432.713.335,1.406.594c.953.347,1.596.695,1.93,1.047s.502.794.502,1.326Z"/><path d="M83.053,148.833c.215,0,.422-.016.621-.047.201-.032.359-.064.477-.1v.931c-.131.063-.326.116-.582.157-.256.042-.486.062-.691.062-1.553,0-2.33-.817-2.33-2.453v-4.775h-1.15v-.586l1.15-.506.514-1.714h.703v1.86h2.328v.945h-2.328v4.724c0,.483.113.854.344,1.113.229.259.545.388.945.388Z"/><path d="M89.419,141.517c.355,0,.676.029.959.088l-.168,1.128c-.332-.073-.625-.11-.879-.11-.65,0-1.205.264-1.666.791-.463.527-.693,1.185-.693,1.971v4.307h-1.215v-8.027h1.004l.139,1.486h.059c.297-.521.656-.925,1.076-1.208s.881-.425,1.385-.425Z"/><path d="M96.815,149.69l-.24-1.143h-.059c-.402.503-.801.844-1.199,1.021-.396.179-.895.268-1.49.268-.795,0-1.42-.205-1.871-.615s-.678-.993-.678-1.75c0-1.621,1.297-2.471,3.891-2.549l1.361-.045v-.498c0-.629-.135-1.095-.406-1.395-.271-.301-.705-.451-1.301-.451-.668,0-1.426.205-2.27.615l-.373-.93c.395-.215.828-.383,1.299-.506.471-.121.943-.183,1.418-.183.957,0,1.666.212,2.127.638.461.424.693,1.105.693,2.043v5.479h-.902ZM94.069,148.833c.756,0,1.352-.207,1.783-.622s.648-.996.648-1.743v-.725l-1.215.051c-.967.034-1.664.185-2.092.45-.428.267-.641.681-.641,1.241,0,.439.133.774.398,1.004s.639.344,1.117.344Z"/><path d="M102.813,148.833c.215,0,.422-.016.623-.047.199-.032.359-.064.477-.1v.931c-.133.063-.326.116-.582.157-.258.042-.488.062-.693.062-1.553,0-2.328-.817-2.328-2.453v-4.775h-1.15v-.586l1.15-.506.512-1.714h.703v1.86h2.33v.945h-2.33v4.724c0,.483.115.854.346,1.113.229.259.543.388.943.388Z"/><path d="M112.444,145.669c0,1.31-.328,2.331-.988,3.065-.658.735-1.57,1.103-2.732,1.103-.717,0-1.354-.168-1.91-.506-.557-.336-.988-.82-1.289-1.449-.305-.631-.455-1.367-.455-2.213,0-1.308.326-2.327.982-3.058.652-.729,1.561-1.095,2.725-1.095,1.121,0,2.014.373,2.676,1.121.662.746.992,1.758.992,3.031ZM106.329,145.669c0,1.025.205,1.808.615,2.344.41.538,1.014.807,1.809.807s1.4-.268,1.812-.803c.414-.534.619-1.316.619-2.348,0-1.02-.205-1.795-.619-2.325-.412-.529-1.021-.794-1.826-.794-.797,0-1.396.261-1.803.783-.404.522-.607,1.302-.607,2.336Z"/><path d="M118.239,141.517c.355,0,.676.029.959.088l-.168,1.128c-.332-.073-.625-.11-.879-.11-.65,0-1.205.264-1.666.791-.463.527-.693,1.185-.693,1.971v4.307h-1.215v-8.027h1.004l.139,1.486h.059c.297-.521.656-.925,1.076-1.208s.881-.425,1.385-.425Z"/><path d="M121.997,144.361h-.891v-4.655h-1.584v-.755h4.055v.755h-1.58v4.655Z"/><path d="M126.737,144.361l-1.559-4.519h-.033c.008.102.018.239.027.414.01.176.018.363.025.562.008.2.012.392.012.574v2.968h-.807v-5.41h1.246l1.498,4.318h.023l1.551-4.318h1.242v5.41h-.848v-3.013c0-.165.004-.344.01-.536s.014-.375.023-.548c.008-.173.014-.311.02-.414h-.029l-1.617,4.511h-.785Z"/><path d="M43.256,116.449l-3.199-8.174h-10.301l-3.164,8.174h-3.023l10.16-25.805h2.514l10.107,25.805h-3.094ZM39.126,105.586l-2.988-7.963c-.387-1.008-.785-2.244-1.195-3.709-.258,1.125-.627,2.361-1.107,3.709l-3.023,7.963h8.314Z"/><path d="M49.883,116.449v-25.699h2.988v25.699h-2.988Z"/><polygon points="61.166 100.256 63.549 100.256 63.549 93.857 69.858 93.857 69.858 91.655 63.549 91.655 63.549 85.256 61.166 85.256 61.166 91.655 54.858 91.655 54.858 93.857 61.166 93.857 61.166 100.256"/><path d="M43.329,39.999l-1.32-4.333h-6.637l-1.32,4.333h-4.159l6.425-18.28h4.72l6.45,18.28h-4.159,0ZM41.087,32.428l-1.32-4.234c-.083-.282-.193-.645-.33-1.09-.137-.444-.274-.897-.411-1.357s-.247-.861-.33-1.202c-.083.341-.197.762-.342,1.264-.145.502-.284.978-.417,1.426-.133.448-.229.768-.286.959l-1.307,4.234h4.744,0Z" fill="#c7a84c"/><path d="M49.142,39.999v-18.206h3.86v18.206h-3.86Z" fill="#c7a84c"/><path d="M67.479,24.745c-.739,0-1.393.143-1.961.43-.569.286-1.046.699-1.432,1.239-.386.54-.679,1.191-.878,1.955-.199.764-.299,1.623-.299,2.578,0,1.287.16,2.385.479,3.294.319.909.816,1.602,1.488,2.08.673.477,1.54.716,2.603.716.739,0,1.48-.083,2.223-.249.743-.166,1.55-.403,2.422-.71v3.238c-.805.332-1.598.571-2.378.716-.781.145-1.656.218-2.628.218-1.876,0-3.418-.388-4.626-1.164-1.208-.776-2.102-1.864-2.684-3.263-.581-1.399-.872-3.032-.872-4.9,0-1.378.187-2.64.56-3.786.374-1.146.922-2.138,1.644-2.976.722-.838,1.615-1.486,2.677-1.943,1.063-.456,2.283-.685,3.661-.685.905,0,1.812.114,2.721.342.909.228,1.779.542,2.609.94l-1.245,3.138c-.681-.324-1.366-.606-2.055-.847-.689-.241-1.366-.361-2.03-.361h0Z"/><path d="M85.844,39.999h-10.485v-18.206h10.485v3.163h-6.625v3.997h6.164v3.163h-6.164v4.695h6.625v3.188h0Z"/><path d="M94.309,21.794c1.652,0,3.015.199,4.091.598,1.075.398,1.874,1,2.397,1.806.523.805.785,1.822.785,3.051,0,.83-.158,1.557-.473,2.179-.316.623-.731,1.15-1.245,1.581-.515.432-1.071.785-1.669,1.058l5.355,7.932h-4.284l-4.346-6.986h-2.055v6.986h-3.86v-18.206h5.305ZM94.035,24.957h-1.171v4.919h1.245c1.278,0,2.194-.214,2.746-.641.552-.427.828-1.056.828-1.887,0-.863-.297-1.478-.89-1.843-.594-.365-1.513-.548-2.758-.548h0Z"/><path d="M112.226,39.999h-3.86v-14.993h-4.944v-3.213h13.748v3.213h-4.944v14.993Z"/><path d="M128.748,35.865c0,.946-.222,1.745-.666,2.397-.444.652-1.106,1.146-1.986,1.482-.88.336-1.976.504-3.287.504-.971,0-1.804-.062-2.497-.187-.693-.125-1.393-.332-2.098-.623v-3.138c.755.341,1.567.621,2.434.841.867.22,1.629.33,2.285.33.739,0,1.268-.11,1.588-.33.319-.22.479-.508.479-.865,0-.232-.064-.442-.193-.629-.129-.187-.405-.398-.828-.635s-1.088-.546-1.992-.928c-.872-.365-1.588-.735-2.148-1.108-.56-.374-.976-.816-1.245-1.326-.27-.511-.405-1.16-.405-1.949,0-1.287.5-2.256,1.501-2.908,1-.652,2.339-.978,4.016-.978.863,0,1.687.087,2.472.261.785.174,1.592.453,2.422.834l-1.146,2.74c-.689-.299-1.339-.544-1.949-.735-.61-.191-1.231-.286-1.862-.286-.556,0-.976.075-1.258.224-.282.149-.423.378-.423.685,0,.224.073.423.218.598.145.174.427.367.847.579.419.212,1.036.484,1.849.816.789.324,1.474.662,2.055,1.015.581.353,1.029.789,1.345,1.307.315.519.473,1.189.473,2.011h0Z"/><path d="M35.177,28.228h-5.665l-4.183-4.183c.176-.239.28-.534.28-.852,0-.793-.645-1.439-1.439-1.439s-1.439.645-1.439,1.439.645,1.439,1.439,1.439c.183,0,.359-.035.52-.098l4.491,4.491h5.206l-.621,1.459h-8.287c-.173-.6-.727-1.04-1.382-1.04-.793,0-1.439.645-1.439,1.439s.645,1.439,1.439,1.439c.655,0,1.209-.44,1.382-1.04h7.948l-.621,1.459h-3.772l-4.491,4.491c-.161-.063-.337-.098-.52-.098-.793,0-1.439.645-1.439,1.439s.645,1.439,1.439,1.439,1.439-.645,1.439-1.439c0-.319-.104-.614-.28-.852l4.183-4.183h3.553l2.259-5.308h0Z" fill="#c7a84c"/><path d="M134.688,21.518c-2.059,0-3.728,1.669-3.728,3.728s1.669,3.728,3.728,3.728,3.728-1.669,3.728-3.728-1.669-3.728-3.728-3.728M134.688,28.228c-1.647,0-2.982-1.335-2.982-2.982s1.335-2.982,2.982-2.982,2.982,1.335,2.982,2.982-1.335,2.982-2.982,2.982M134.781,25.719h-.537v1.204h-.675v-3.277h1.215c.319-.02.635.071.895.257.218.184.334.461.313.746.007.197-.043.391-.145.559-.105.166-.259.296-.44.373l.708,1.338v.037h-.723l-.611-1.204M134.245,25.209h.544c.142.008.282-.039.391-.13.1-.097.15-.234.138-.373.011-.137-.036-.273-.13-.373-.11-.097-.256-.144-.403-.13h-.541v1.006Z"/></svg>